<svg id="Layer_1" data-name="Layer 1" xmlns="http://www.w3.org/2000/svg" viewBox="0 0 193.5 251.58"><defs><style>.cls-1{fill:#010101;}.cls-2,.cls-3{fill:none;stroke:#000;}.cls-2{stroke-miterlimit:10;stroke-width:0;}.cls-3{stroke-linecap:round;stroke-linejoin:round;stroke-width:0.72px;}</style></defs><title>1.58G_planarMonopole_EdgeFed_FR4</title><path class="cls-1" d="M81.48,30.9l30.6,120.9H81.48Zm30.6,0H81.48l30.6,120.9Z"/><path class="cls-2" d="M81.48,30.9l30.6,120.9H81.48Zm30.6,0H81.48l30.6,120.9Z"/><path class="cls-1" d="M101.34,154.86l61.2,96.36h-61.2Zm61.2,0h-61.2l61.2,96.36Z"/><path class="cls-2" d="M101.34,154.86l61.2,96.36h-61.2Zm61.2,0h-61.2l61.2,96.36Z"/><path class="cls-1" d="M93.72,151.8l6.12,99.42H93.72Zm6.12,0H93.72l6.12,99.42Z"/><path class="cls-2" d="M93.72,151.8l6.12,99.42H93.72Zm6.12,0H93.72l6.12,99.42Z"/><path class="cls-1" d="M31,154.86l61.2,96.36H31Zm61.2,0H31l61.2,96.36Z"/><path class="cls-2" d="M31,154.86l61.2,96.36H31Zm61.2,0H31l61.2,96.36Z"/><polyline class="cls-3" points="0.36 251.22 193.14 251.22 193.14 0.36 0.36 0.36 0.36 251.22"/><polyline class="cls-3" points="81.48 151.8 112.08 151.8 112.08 30.9 81.48 30.9 81.48 151.8"/><polyline class="cls-3" points="93.72 251.22 99.84 251.22 99.84 151.8 93.72 151.8 93.72 251.22"/><polyline class="cls-3" points="101.34 251.22 162.54 251.22 162.54 154.86 101.34 154.86 101.34 251.22"/><polyline class="cls-3" points="30.96 251.22 92.16 251.22 92.16 154.86 30.96 154.86 30.96 251.22"/></svg>