<svg id="Layer_1" data-name="Layer 1" xmlns="http://www.w3.org/2000/svg" viewBox="0 0 121.98 233.94"><defs><style>.cls-1,.cls-3,.cls-4{fill:none;}.cls-1{stroke:#000;stroke-linejoin:round;stroke-width:0.72px;}.cls-1,.cls-3{stroke-linecap:round;}.cls-2{fill:#f16924;}.cls-3{stroke:#f16924;stroke-miterlimit:10;stroke-width:0;}</style></defs><title>24G_Vivaldi_EdgeFed_RT5880_front</title><polyline class="cls-1" points="0.36 233.58 121.62 233.58 121.62 0.36 0.36 0.36 0.36 233.58"/><path class="cls-2" d="M348.28,252.25l4.49,5.35H342.39Zm4.49,0h-4.49l4.49,5.35Z" transform="translate(-231.15 -251.89)"/><path class="cls-3" d="M348.28,252.25l4.49,5.35H342.39Zm4.49,0h-4.49l4.49,5.35Z" transform="translate(-231.15 -251.89)"/><path class="cls-2" d="M231.51,252.25,242,257.6H231.51Zm4.49,0h-4.49L242,257.6Z" transform="translate(-231.15 -251.89)"/><path class="cls-3" d="M231.51,252.25,242,257.6H231.51Zm4.49,0h-4.49L242,257.6Z" transform="translate(-231.15 -251.89)"/><path class="cls-2" d="M342.39,257.6l10.38,11.62H331.39Zm10.38,0H342.39l10.38,11.62Z" transform="translate(-231.15 -251.89)"/><path class="cls-3" d="M342.39,257.6l10.38,11.62H331.39Zm10.38,0H342.39l10.38,11.62Z" transform="translate(-231.15 -251.89)"/><path class="cls-2" d="M231.51,257.6l21.38,11.62H231.51Zm10.46,0H231.51l21.38,11.62Z" transform="translate(-231.15 -251.89)"/><path class="cls-3" d="M231.51,257.6l21.38,11.62H231.51Zm10.46,0H231.51l21.38,11.62Z" transform="translate(-231.15 -251.89)"/><path class="cls-2" d="M331.39,269.22l21.38,20.15H318.29Zm21.38,0H331.39l21.38,20.15Z" transform="translate(-231.15 -251.89)"/><path class="cls-3" d="M331.39,269.22l21.38,20.15H318.29Zm21.38,0H331.39l21.38,20.15Z" transform="translate(-231.15 -251.89)"/><path class="cls-2" d="M231.51,269.22,266,289.36H231.51Zm21.38,0H231.51L266,289.36Z" transform="translate(-231.15 -251.89)"/><path class="cls-3" d="M231.51,269.22,266,289.36H231.51Zm21.38,0H231.51L266,289.36Z" transform="translate(-231.15 -251.89)"/><path class="cls-2" d="M318.29,289.36l34.48,22H308.84Zm34.48,0H318.29l34.48,22Z" transform="translate(-231.15 -251.89)"/><path class="cls-3" d="M318.29,289.36l34.48,22H308.84Zm34.48,0H318.29l34.48,22Z" transform="translate(-231.15 -251.89)"/><path class="cls-2" d="M231.51,289.36l43.93,22H231.51Zm34.48,0H231.51l43.93,22Z" transform="translate(-231.15 -251.89)"/><path class="cls-3" d="M231.51,289.36l43.93,22H231.51Zm34.48,0H231.51l43.93,22Z" transform="translate(-231.15 -251.89)"/><path class="cls-2" d="M308.84,311.37l43.93,23.09H302.48Zm43.93,0H308.84l43.93,23.09Z" transform="translate(-231.15 -251.89)"/><path class="cls-3" d="M308.84,311.37l43.93,23.09H302.48Zm43.93,0H308.84l43.93,23.09Z" transform="translate(-231.15 -251.89)"/><path class="cls-2" d="M231.51,311.37l50.29,23.09H231.51Zm43.93,0H231.51l50.29,23.09Z" transform="translate(-231.15 -251.89)"/><path class="cls-3" d="M231.51,311.37l50.29,23.09H231.51Zm43.93,0H231.51l50.29,23.09Z" transform="translate(-231.15 -251.89)"/><path class="cls-2" d="M302.48,334.46,352.77,362H297.68Zm50.29,0H302.48L352.77,362Z" transform="translate(-231.15 -251.89)"/><path class="cls-3" d="M302.48,334.46,352.77,362H297.68Zm50.29,0H302.48L352.77,362Z" transform="translate(-231.15 -251.89)"/><path class="cls-2" d="M231.51,334.46,286.6,362H231.51Zm50.29,0H231.51L286.6,362Z" transform="translate(-231.15 -251.89)"/><path class="cls-3" d="M231.51,334.46,286.6,362H231.51Zm50.29,0H231.51L286.6,362Z" transform="translate(-231.15 -251.89)"/><path class="cls-2" d="M297.68,362l55.09,31.69H294.66Zm55.09,0H297.68l55.09,31.69Z" transform="translate(-231.15 -251.89)"/><path class="cls-3" d="M297.68,362l55.09,31.69H294.66Zm55.09,0H297.68l55.09,31.69Z" transform="translate(-231.15 -251.89)"/><path class="cls-2" d="M231.51,362l58.11,31.69H231.51Zm55.09,0H231.51l58.11,31.69Z" transform="translate(-231.15 -251.89)"/><path class="cls-3" d="M231.51,362l58.11,31.69H231.51Zm55.09,0H231.51l58.11,31.69Z" transform="translate(-231.15 -251.89)"/><path class="cls-2" d="M294.66,393.65l58.11,23.94H293.5Zm58.11,0H294.66l58.11,23.94Z" transform="translate(-231.15 -251.89)"/><path class="cls-3" d="M294.66,393.65l58.11,23.94H293.5Zm58.11,0H294.66l58.11,23.94Z" transform="translate(-231.15 -251.89)"/><path class="cls-2" d="M231.51,393.65l59.27,23.94H231.51Zm58.11,0H231.51l59.27,23.94Z" transform="translate(-231.15 -251.89)"/><path class="cls-3" d="M231.51,393.65l59.27,23.94H231.51Zm58.11,0H231.51l59.27,23.94Z" transform="translate(-231.15 -251.89)"/><path class="cls-2" d="M293.5,417.6l59.27,11.93H293.11Zm59.27,0H293.5l59.27,11.93Z" transform="translate(-231.15 -251.89)"/><path class="cls-3" d="M293.5,417.6l59.27,11.93H293.11Zm59.27,0H293.5l59.27,11.93Z" transform="translate(-231.15 -251.89)"/><path class="cls-2" d="M231.51,417.6l59.74,11.93H231.51Zm59.27,0H231.51l59.74,11.93Z" transform="translate(-231.15 -251.89)"/><path class="cls-3" d="M231.51,417.6l59.74,11.93H231.51Zm59.27,0H231.51l59.74,11.93Z" transform="translate(-231.15 -251.89)"/><path class="cls-2" d="M293.11,429.53l59.66,2.71H293.11Zm59.66,0H293.11l59.66,2.71Z" transform="translate(-231.15 -251.89)"/><path class="cls-3" d="M293.11,429.53l59.66,2.71H293.11Zm59.66,0H293.11l59.66,2.71Z" transform="translate(-231.15 -251.89)"/><path class="cls-2" d="M231.51,429.53l59.74,2.71H231.51Zm59.74,0H231.51l59.74,2.71Z" transform="translate(-231.15 -251.89)"/><path class="cls-3" d="M231.51,429.53l59.74,2.71H231.51Zm59.74,0H231.51l59.74,2.71Z" transform="translate(-231.15 -251.89)"/><path class="cls-2" d="M293.11,432.24l59.66.31H294.43Zm59.66,0H293.11l59.66.31Z" transform="translate(-231.15 -251.89)"/><path class="cls-3" d="M293.11,432.24l59.66.31H294.43Zm59.66,0H293.11l59.66.31Z" transform="translate(-231.15 -251.89)"/><path class="cls-2" d="M231.51,432.24l58.34.31H231.51Zm59.74,0H231.51l58.34.31Z" transform="translate(-231.15 -251.89)"/><path class="cls-3" d="M231.51,432.24l58.34.31H231.51Zm59.74,0H231.51l58.34.31Z" transform="translate(-231.15 -251.89)"/><path class="cls-2" d="M294.43,432.55l58.34.54h-57Zm58.34,0H294.43l58.34.54Z" transform="translate(-231.15 -251.89)"/><path class="cls-3" d="M294.43,432.55l58.34.54h-57Zm58.34,0H294.43l58.34.54Z" transform="translate(-231.15 -251.89)"/><path class="cls-2" d="M231.51,432.55l57,.54h-57Zm58.34,0H231.51l57,.54Z" transform="translate(-231.15 -251.89)"/><path class="cls-3" d="M231.51,432.55l57,.54h-57Zm58.34,0H231.51l57,.54Z" transform="translate(-231.15 -251.89)"/><path class="cls-2" d="M295.74,433.09l57,.77H296.91Zm57,0h-57l57,.77Z" transform="translate(-231.15 -251.89)"/><path class="cls-3" d="M295.74,433.09l57,.77H296.91Zm57,0h-57l57,.77Z" transform="translate(-231.15 -251.89)"/><path class="cls-2" d="M231.51,433.09l55.86.77H231.51Zm57,0h-57l55.86.77Z" transform="translate(-231.15 -251.89)"/><path class="cls-3" d="M231.51,433.09l55.86.77H231.51Zm57,0h-57l55.86.77Z" transform="translate(-231.15 -251.89)"/><path class="cls-2" d="M296.91,433.87l55.86,1H297.91Zm55.86,0H296.91l55.86,1Z" transform="translate(-231.15 -251.89)"/><path class="cls-3" d="M296.91,433.87l55.86,1H297.91Zm55.86,0H296.91l55.86,1Z" transform="translate(-231.15 -251.89)"/><path class="cls-2" d="M231.51,433.87l54.86,1H231.51Zm55.86,0H231.51l54.86,1Z" transform="translate(-231.15 -251.89)"/><path class="cls-3" d="M231.51,433.87l54.86,1H231.51Zm55.86,0H231.51l54.86,1Z" transform="translate(-231.15 -251.89)"/><path class="cls-2" d="M297.91,434.87,352.77,436H298.69Zm54.86,0H297.91L352.77,436Z" transform="translate(-231.15 -251.89)"/><path class="cls-3" d="M297.91,434.87,352.77,436H298.69Zm54.86,0H297.91L352.77,436Z" transform="translate(-231.15 -251.89)"/><path class="cls-2" d="M231.51,434.87,285.59,436H231.51Zm54.86,0H231.51L285.59,436Z" transform="translate(-231.15 -251.89)"/><path class="cls-3" d="M231.51,434.87,285.59,436H231.51Zm54.86,0H231.51L285.59,436Z" transform="translate(-231.15 -251.89)"/><path class="cls-2" d="M298.69,436l54.08,1.32H299.23Zm54.08,0H298.69l54.08,1.32Z" transform="translate(-231.15 -251.89)"/><path class="cls-3" d="M298.69,436l54.08,1.32H299.23Zm54.08,0H298.69l54.08,1.32Z" transform="translate(-231.15 -251.89)"/><path class="cls-2" d="M231.51,436l53.54,1.32H231.51Zm54.08,0H231.51l53.54,1.32Z" transform="translate(-231.15 -251.89)"/><path class="cls-3" d="M231.51,436l53.54,1.32H231.51Zm54.08,0H231.51l53.54,1.32Z" transform="translate(-231.15 -251.89)"/><path class="cls-2" d="M299.23,437.35l53.54,1.32H299.54Zm53.54,0H299.23l53.54,1.32Z" transform="translate(-231.15 -251.89)"/><path class="cls-3" d="M299.23,437.35l53.54,1.32H299.54Zm53.54,0H299.23l53.54,1.32Z" transform="translate(-231.15 -251.89)"/><path class="cls-2" d="M231.51,437.35l53.23,1.32H231.51Zm53.54,0H231.51l53.23,1.32Z" transform="translate(-231.15 -251.89)"/><path class="cls-3" d="M231.51,437.35l53.23,1.32H231.51Zm53.54,0H231.51l53.23,1.32Z" transform="translate(-231.15 -251.89)"/><path class="cls-2" d="M299.54,438.67l53.23,1.39H299.62Zm53.23,0H299.54l53.23,1.39Z" transform="translate(-231.15 -251.89)"/><path class="cls-3" d="M299.54,438.67l53.23,1.39H299.62Zm53.23,0H299.54l53.23,1.39Z" transform="translate(-231.15 -251.89)"/><path class="cls-2" d="M231.51,438.67l53.23,1.39H231.51Zm53.23,0H231.51l53.23,1.39Z" transform="translate(-231.15 -251.89)"/><path class="cls-3" d="M231.51,438.67l53.23,1.39H231.51Zm53.23,0H231.51l53.23,1.39Z" transform="translate(-231.15 -251.89)"/><path class="cls-2" d="M299.62,440.07l53.15,1.39H299.39Zm53.15,0H299.62l53.15,1.39Z" transform="translate(-231.15 -251.89)"/><path class="cls-3" d="M299.62,440.07l53.15,1.39H299.39Zm53.15,0H299.62l53.15,1.39Z" transform="translate(-231.15 -251.89)"/><path class="cls-2" d="M231.51,440.07l53.38,1.39H231.51Zm53.23,0H231.51l53.38,1.39Z" transform="translate(-231.15 -251.89)"/><path class="cls-3" d="M231.51,440.07l53.38,1.39H231.51Zm53.23,0H231.51l53.38,1.39Z" transform="translate(-231.15 -251.89)"/><path class="cls-2" d="M299.39,441.46l53.38,1.32H298.92Zm53.38,0H299.39l53.38,1.32Z" transform="translate(-231.15 -251.89)"/><path class="cls-3" d="M299.39,441.46l53.38,1.32H298.92Zm53.38,0H299.39l53.38,1.32Z" transform="translate(-231.15 -251.89)"/><path class="cls-2" d="M231.51,441.46l53.93,1.32H231.51Zm53.38,0H231.51l53.93,1.32Z" transform="translate(-231.15 -251.89)"/><path class="cls-3" d="M231.51,441.46l53.93,1.32H231.51Zm53.38,0H231.51l53.93,1.32Z" transform="translate(-231.15 -251.89)"/><path class="cls-2" d="M298.92,442.78,352.77,444H298.22Zm53.85,0H298.92L352.77,444Z" transform="translate(-231.15 -251.89)"/><path class="cls-3" d="M298.92,442.78,352.77,444H298.22Zm53.85,0H298.92L352.77,444Z" transform="translate(-231.15 -251.89)"/><path class="cls-2" d="M231.51,442.78,286.14,444H231.51Zm53.93,0H231.51L286.14,444Z" transform="translate(-231.15 -251.89)"/><path class="cls-3" d="M231.51,442.78,286.14,444H231.51Zm53.93,0H231.51L286.14,444Z" transform="translate(-231.15 -251.89)"/><path class="cls-2" d="M298.22,444l54.55,1.08H297.29Zm54.55,0H298.22l54.55,1.08Z" transform="translate(-231.15 -251.89)"/><path class="cls-3" d="M298.22,444l54.55,1.08H297.29Zm54.55,0H298.22l54.55,1.08Z" transform="translate(-231.15 -251.89)"/><path class="cls-2" d="M231.51,444l55.55,1.08H231.51Zm54.62,0H231.51l55.55,1.08Z" transform="translate(-231.15 -251.89)"/><path class="cls-3" d="M231.51,444l55.55,1.08H231.51Zm54.62,0H231.51l55.55,1.08Z" transform="translate(-231.15 -251.89)"/><path class="cls-2" d="M297.29,445.1l55.48.85H296.13Zm55.48,0H297.29l55.48.85Z" transform="translate(-231.15 -251.89)"/><path class="cls-3" d="M297.29,445.1l55.48.85H296.13Zm55.48,0H297.29l55.48.85Z" transform="translate(-231.15 -251.89)"/><path class="cls-2" d="M231.51,445.1l56.64.85H231.51Zm55.55,0H231.51l56.64.85Z" transform="translate(-231.15 -251.89)"/><path class="cls-3" d="M231.51,445.1l56.64.85H231.51Zm55.55,0H231.51l56.64.85Z" transform="translate(-231.15 -251.89)"/><path class="cls-2" d="M296.13,446l56.64.62H294.89Zm56.64,0H296.13l56.64.62Z" transform="translate(-231.15 -251.89)"/><path class="cls-3" d="M296.13,446l56.64.62H294.89Zm56.64,0H296.13l56.64.62Z" transform="translate(-231.15 -251.89)"/><path class="cls-2" d="M231.51,446l57.88.62H231.51Zm56.64,0H231.51l57.88.62Z" transform="translate(-231.15 -251.89)"/><path class="cls-3" d="M231.51,446l57.88.62H231.51Zm56.64,0H231.51l57.88.62Z" transform="translate(-231.15 -251.89)"/><path class="cls-2" d="M294.89,446.57l57.88.39h-59.2Zm57.88,0H294.89l57.88.39Z" transform="translate(-231.15 -251.89)"/><path class="cls-3" d="M294.89,446.57l57.88.39h-59.2Zm57.88,0H294.89l57.88.39Z" transform="translate(-231.15 -251.89)"/><path class="cls-2" d="M231.51,446.57l59.27.39H231.51Zm57.88,0H231.51l59.27.39Z" transform="translate(-231.15 -251.89)"/><path class="cls-3" d="M231.51,446.57l59.27.39H231.51Zm57.88,0H231.51l59.27.39Z" transform="translate(-231.15 -251.89)"/><path class="cls-2" d="M293.57,447l59.2.15H292.18Zm59.2,0h-59.2l59.2.15Z" transform="translate(-231.15 -251.89)"/><path class="cls-3" d="M293.57,447l59.2.15H292.18Zm59.2,0h-59.2l59.2.15Z" transform="translate(-231.15 -251.89)"/><path class="cls-2" d="M231.51,447l60.67.15H231.51Zm59.27,0H231.51l60.67.15Z" transform="translate(-231.15 -251.89)"/><path class="cls-3" d="M231.51,447l60.67.15H231.51Zm59.27,0H231.51l60.67.15Z" transform="translate(-231.15 -251.89)"/><path class="cls-2" d="M231.51,447.12l121.26,38.35H231.51Zm121.26,0H231.51l121.26,38.35Z" transform="translate(-231.15 -251.89)"/><path class="cls-3" d="M231.51,447.12l121.26,38.35H231.51Zm121.26,0H231.51l121.26,38.35Z" transform="translate(-231.15 -251.89)"/><polyline class="cls-4" points="10.82 5.71 21.75 17.33 34.84 37.47 44.29 59.48 50.65 82.57 55.45 110.07 58.47 141.76 59.63 165.71 60.1 177.64 60.1 180.35"/><path class="cls-4" d="M291.21,432.14a7.48,7.48,0,0,0,.94,14.9" transform="translate(-231.15 -251.89)"/><path class="cls-4" d="M292.14,447a7.48,7.48,0,0,0,.94-14.9" transform="translate(-231.15 -251.89)"/><polyline class="cls-4" points="61.96 180.35 61.96 177.64 62.34 165.71 63.51 141.76 66.53 110.07 71.33 82.57 77.69 59.48 87.14 37.47 100.23 17.33 111.24 5.71 117.13 0.36 121.62 0.36 121.62 233.58 0.36 233.58 0.36 0.36 4.85 0.36 10.82 5.71"/></svg>