<svg id="Layer_1" data-name="Layer 1" xmlns="http://www.w3.org/2000/svg" viewBox="0 0 121.68 233.28"><defs><style>.cls-1{fill:#f16924;}.cls-2,.cls-3,.cls-4{fill:none;}.cls-2{stroke:#f16924;stroke-miterlimit:10;stroke-width:0;}.cls-4{stroke:#000;stroke-linecap:round;stroke-linejoin:round;stroke-width:0.72px;}</style></defs><title>24G_Vivaldi_EdgeFed_RT5880_back</title><path class="cls-1" d="M303.32,445.06l.06.42H301.7Zm.12.42-.12-.42.06.42Z" transform="translate(-245.54 -278.68)"/><path class="cls-2" d="M303.32,445.06l.06.42H301.7Zm.12.42-.12-.42.06.42Z" transform="translate(-245.54 -278.68)"/><path class="cls-1" d="M301.7,445.48l1.8.66h-3.42Zm1.68,0H301.7l1.8.66Z" transform="translate(-245.54 -278.68)"/><path class="cls-2" d="M301.7,445.48l1.8.66h-3.42Zm1.68,0H301.7l1.8.66Z" transform="translate(-245.54 -278.68)"/><path class="cls-1" d="M300.08,446.14l3.6.84h-5Zm3.42,0h-3.42l3.6.84Z" transform="translate(-245.54 -278.68)"/><path class="cls-2" d="M300.08,446.14l3.6.84h-5Zm3.42,0h-3.42l3.6.84Z" transform="translate(-245.54 -278.68)"/><path class="cls-1" d="M298.64,447l5.22,1.08h-6.6Zm5,0h-5l5.22,1.08Z" transform="translate(-245.54 -278.68)"/><path class="cls-2" d="M298.64,447l5.22,1.08h-6.6Zm5,0h-5l5.22,1.08Z" transform="translate(-245.54 -278.68)"/><path class="cls-1" d="M297.26,448.06l6.84,1.2h-8Zm6.6,0h-6.6l6.84,1.2Z" transform="translate(-245.54 -278.68)"/><path class="cls-2" d="M297.26,448.06l6.84,1.2h-8Zm6.6,0h-6.6l6.84,1.2Z" transform="translate(-245.54 -278.68)"/><path class="cls-1" d="M296.06,449.26l8.28,1.38H295.1Zm8,0h-8l8.28,1.38Z" transform="translate(-245.54 -278.68)"/><path class="cls-2" d="M296.06,449.26l8.28,1.38H295.1Zm8,0h-8l8.28,1.38Z" transform="translate(-245.54 -278.68)"/><path class="cls-1" d="M303.38,445.48l1.56,6.66h-.36Zm.06,0h-.06l1.56,6.66Z" transform="translate(-245.54 -278.68)"/><path class="cls-2" d="M303.38,445.48l1.56,6.66h-.36Zm.06,0h-.06l1.56,6.66Z" transform="translate(-245.54 -278.68)"/><path class="cls-1" d="M295.1,450.64l9.48,1.5H294.26Zm9.24,0H295.1l9.48,1.5Z" transform="translate(-245.54 -278.68)"/><path class="cls-2" d="M295.1,450.64l9.48,1.5H294.26Zm9.24,0H295.1l9.48,1.5Z" transform="translate(-245.54 -278.68)"/><path class="cls-1" d="M304.58,452.14l.72,1.62h-.42Zm.36,0h-.36l.72,1.62Z" transform="translate(-245.54 -278.68)"/><path class="cls-2" d="M304.58,452.14l.72,1.62h-.42Zm.36,0h-.36l.72,1.62Z" transform="translate(-245.54 -278.68)"/><path class="cls-1" d="M294.26,452.14l10.62,1.62H293.66Zm10.32,0H294.26l10.62,1.62Z" transform="translate(-245.54 -278.68)"/><path class="cls-2" d="M294.26,452.14l10.62,1.62H293.66Zm10.32,0H294.26l10.62,1.62Z" transform="translate(-245.54 -278.68)"/><path class="cls-1" d="M304.88,453.76l.6.72H305Zm.42,0h-.42l.6.72Z" transform="translate(-245.54 -278.68)"/><path class="cls-2" d="M304.88,453.76l.6.72H305Zm.42,0h-.42l.6.72Z" transform="translate(-245.54 -278.68)"/><path class="cls-1" d="M293.66,453.76l11.34.72H293.54Zm11.22,0H293.66l11.34.72Z" transform="translate(-245.54 -278.68)"/><path class="cls-2" d="M293.66,453.76l11.34.72H293.54Zm11.22,0H293.66l11.34.72Z" transform="translate(-245.54 -278.68)"/><path class="cls-1" d="M305,454.48l.48,1h-.3Zm.48,0H305l.48,1Z" transform="translate(-245.54 -278.68)"/><path class="cls-2" d="M305,454.48l.48,1h-.3Zm.48,0H305l.48,1Z" transform="translate(-245.54 -278.68)"/><path class="cls-1" d="M293.54,454.48l11.64,1H293.36Zm11.46,0H293.54l11.64,1Z" transform="translate(-245.54 -278.68)"/><path class="cls-2" d="M293.54,454.48l11.64,1H293.36Zm11.46,0H293.54l11.64,1Z" transform="translate(-245.54 -278.68)"/><polygon class="cls-1" points="59.76 177.66 59.94 177.66 59.94 178.44 59.76 177.66"/><polygon class="cls-2" points="59.76 177.66 59.94 177.66 59.94 178.44 59.76 177.66"/><path class="cls-1" d="M319,454.48l2.7,1.86H319Zm.84,0H319l2.7,1.86Z" transform="translate(-245.54 -278.68)"/><path class="cls-2" d="M319,454.48l2.7,1.86H319Zm.84,0H319l2.7,1.86Z" transform="translate(-245.54 -278.68)"/><path class="cls-1" d="M305.18,455.44l.3.9h-.18Zm.3,0h-.3l.3.9Z" transform="translate(-245.54 -278.68)"/><path class="cls-2" d="M305.18,455.44l.3.9h-.18Zm.3,0h-.3l.3.9Z" transform="translate(-245.54 -278.68)"/><path class="cls-1" d="M293.36,455.44l11.94.9h-12Zm11.82,0H293.36l11.94.9Z" transform="translate(-245.54 -278.68)"/><path class="cls-2" d="M293.36,455.44l11.94.9h-12Zm11.82,0H293.36l11.94.9Z" transform="translate(-245.54 -278.68)"/><path class="cls-1" d="M319,456.34l2.7.78H319Zm2.7,0H319l2.7.78Z" transform="translate(-245.54 -278.68)"/><path class="cls-2" d="M319,456.34l2.7.78H319Zm2.7,0H319l2.7.78Z" transform="translate(-245.54 -278.68)"/><path class="cls-1" d="M305.48,454.48l13.5,2.64h-13.5Zm13.5,0h-13.5l13.5,2.64Z" transform="translate(-245.54 -278.68)"/><path class="cls-2" d="M305.48,454.48l13.5,2.64h-13.5Zm13.5,0h-13.5l13.5,2.64Z" transform="translate(-245.54 -278.68)"/><path class="cls-1" d="M293.3,456.34l12.18.78H293.24Zm12,0h-12l12.18.78Z" transform="translate(-245.54 -278.68)"/><path class="cls-2" d="M293.3,456.34l12.18.78H293.24Zm12,0h-12l12.18.78Z" transform="translate(-245.54 -278.68)"/><path class="cls-1" d="M319,457.12l4.62,38.64h-6.54Zm2.7,0H319l4.62,38.64Z" transform="translate(-245.54 -278.68)"/><path class="cls-2" d="M319,457.12l4.62,38.64h-6.54Zm2.7,0H319l4.62,38.64Z" transform="translate(-245.54 -278.68)"/><path class="cls-1" d="M317.06,495.76l6.54,15.84h-6.54Zm6.54,0h-6.54l6.54,15.84Z" transform="translate(-245.54 -278.68)"/><path class="cls-2" d="M317.06,495.76l6.54,15.84h-6.54Zm6.54,0h-6.54l6.54,15.84Z" transform="translate(-245.54 -278.68)"/><path class="cls-3" d="M303.32,445a12.27,12.27,0,0,0-7.27,4.2" transform="translate(-245.54 -278.68)"/><path class="cls-3" d="M296.05,449.2a12.27,12.27,0,0,0-2.87,7.89" transform="translate(-245.54 -278.68)"/><polyline class="cls-3" points="47.7 178.44 59.94 178.44 57.78 166.38"/><polyline class="cls-3" points="59.94 178.44 73.44 178.44 73.44 175.8 59.94 175.8 59.94 178.44"/><polyline class="cls-3" points="57.78 166.38 59.94 178.44 59.94 175.8 57.78 166.38"/><polyline class="cls-3" points="71.52 217.08 71.52 232.92 78.06 232.92 78.06 217.08 71.52 217.08"/><polyline class="cls-3" points="76.14 177.66 74.28 175.8 73.44 175.8 73.44 178.44 76.14 178.44 76.14 177.66"/><polyline class="cls-3" points="71.52 217.08 78.06 217.08 76.14 178.44 73.44 178.44 71.52 217.08"/><polyline class="cls-4" points="0.36 232.92 121.32 232.92 121.32 0.36 0.36 0.36 0.36 232.92"/></svg>