<svg id="Layer_1" data-name="Layer 1" xmlns="http://www.w3.org/2000/svg" viewBox="0 0 157.92 267.54"><defs><style>.cls-1{fill:none;stroke:#000;stroke-linecap:round;stroke-linejoin:round;stroke-width:0.72px;}</style></defs><title>5.8G_Vivaldi_EdgeFed_FR4_top</title><polyline class="cls-1" points="0.36 267.18 157.56 267.18 157.56 0.36 0.36 0.36 0.36 267.18"/><polyline class="cls-1" points="80.4 228.12 80.4 225.72 80.94 213.72 81.54 201.72 82.26 189.78 83.1 177.84 84.12 165.9 85.26 153.96 86.64 142.02 88.2 130.2 90.06 118.32 92.22 106.56 94.8 94.86 97.74 83.22 101.1 71.7 105 60.42 109.5 49.26 114.54 38.4 120.24 27.84 126.54 17.64 133.44 7.86 139.44 0.36 157.56 0.36 157.56 267.18 0.36 267.18"/><path class="cls-1" d="M304.54,489.86A7.29,7.29,0,0,0,306,504.29" transform="translate(-227.07 -261.77)"/><path class="cls-1" d="M306,504.29a7.29,7.29,0,0,0,1.46-14.43" transform="translate(-227.07 -261.77)"/><polyline class="cls-1" points="0.36 267.18 0.36 0.36 18.48 0.36 25.86 9.78 32.7 19.62 38.88 29.94 44.4 40.56 49.32 51.48 53.7 62.64 57.48 73.98 60.78 85.5 63.66 97.14 66.12 108.9 68.22 120.66 70.02 132.54 71.58 144.42 72.9 156.3 74.04 168.24 75 180.18 75.78 192.18 76.5 204.12 77.1 216.06 77.52 225.72 77.52 228.12"/></svg>