<svg id="Layer_1" data-name="Layer 1" xmlns="http://www.w3.org/2000/svg" viewBox="0 0 128.04 216.96"><defs><style>.cls-1,.cls-3,.cls-4{fill:none;}.cls-1{stroke:#000;stroke-linejoin:round;stroke-width:0.72px;}.cls-1,.cls-3{stroke-linecap:round;}.cls-2{fill:#f16924;}.cls-3{stroke:#f16924;stroke-miterlimit:10;stroke-width:0;}</style></defs><title>5.8G_Vivaldi_EdgeFed_FR4_front</title><polyline class="cls-1" points="0.36 216.6 127.68 216.6 127.68 0.36 0.36 0.36 0.36 216.6"/><path class="cls-2" d="M342.39,280.39,357,283.56H339.77Zm14.59,0H342.39L357,283.56Z" transform="translate(-229.3 -280.03)"/><path class="cls-3" d="M342.39,280.39,357,283.56H339.77Zm14.59,0H342.39L357,283.56Z" transform="translate(-229.3 -280.03)"/><path class="cls-2" d="M229.66,280.39l17.21,3.17H229.66Zm14.73,0H229.66l17.21,3.17Z" transform="translate(-229.3 -280.03)"/><path class="cls-3" d="M229.66,280.39l17.21,3.17H229.66Zm14.73,0H229.66l17.21,3.17Z" transform="translate(-229.3 -280.03)"/><path class="cls-2" d="M339.77,283.56,357,291.4H333.72Zm17.21,0H339.77L357,291.4Z" transform="translate(-229.3 -280.03)"/><path class="cls-3" d="M339.77,283.56,357,291.4H333.72Zm17.21,0H339.77L357,291.4Z" transform="translate(-229.3 -280.03)"/><path class="cls-2" d="M229.66,283.56l23.4,7.85h-23.4Zm17.21,0H229.66l23.4,7.85Z" transform="translate(-229.3 -280.03)"/><path class="cls-3" d="M229.66,283.56l23.4,7.85h-23.4Zm17.21,0H229.66l23.4,7.85Z" transform="translate(-229.3 -280.03)"/><path class="cls-2" d="M333.72,291.4,357,305H325Zm23.26,0H333.72L357,305Z" transform="translate(-229.3 -280.03)"/><path class="cls-3" d="M333.72,291.4,357,305H325Zm23.26,0H333.72L357,305Z" transform="translate(-229.3 -280.03)"/><path class="cls-2" d="M229.66,291.4,261.59,305H229.66Zm23.4,0h-23.4L261.59,305Z" transform="translate(-229.3 -280.03)"/><path class="cls-3" d="M229.66,291.4,261.59,305H229.66Zm23.4,0h-23.4L261.59,305Z" transform="translate(-229.3 -280.03)"/><path class="cls-2" d="M325,305l31.93,18H316.37ZM357,305H325l31.93,18Z" transform="translate(-229.3 -280.03)"/><path class="cls-3" d="M325,305l31.93,18H316.37ZM357,305H325l31.93,18Z" transform="translate(-229.3 -280.03)"/><path class="cls-2" d="M229.66,305l40.61,18H229.66Zm31.93,0H229.66l40.61,18Z" transform="translate(-229.3 -280.03)"/><path class="cls-3" d="M229.66,305l40.61,18H229.66Zm31.93,0H229.66l40.61,18Z" transform="translate(-229.3 -280.03)"/><path class="cls-2" d="M316.37,323.06,357,344H309.22Zm40.61,0H316.37L357,344Z" transform="translate(-229.3 -280.03)"/><path class="cls-3" d="M316.37,323.06,357,344H309.22Zm40.61,0H316.37L357,344Z" transform="translate(-229.3 -280.03)"/><path class="cls-2" d="M229.66,323.06,277.56,344h-47.9Zm40.61,0H229.66L277.56,344Z" transform="translate(-229.3 -280.03)"/><path class="cls-3" d="M229.66,323.06,277.56,344h-47.9Zm40.61,0H229.66L277.56,344Z" transform="translate(-229.3 -280.03)"/><path class="cls-2" d="M309.22,344,357,367.38H303.71ZM357,344H309.22L357,367.38Z" transform="translate(-229.3 -280.03)"/><path class="cls-3" d="M309.22,344,357,367.38H303.71ZM357,344H309.22L357,367.38Z" transform="translate(-229.3 -280.03)"/><path class="cls-2" d="M229.66,344l53.41,23.4H229.66Zm47.9,0h-47.9l53.41,23.4Z" transform="translate(-229.3 -280.03)"/><path class="cls-3" d="M229.66,344l53.41,23.4H229.66Zm47.9,0h-47.9l53.41,23.4Z" transform="translate(-229.3 -280.03)"/><path class="cls-2" d="M303.71,367.38,357,391.19H299.86Zm53.27,0H303.71L357,391.19Z" transform="translate(-229.3 -280.03)"/><path class="cls-3" d="M303.71,367.38,357,391.19H299.86Zm53.27,0H303.71L357,391.19Z" transform="translate(-229.3 -280.03)"/><path class="cls-2" d="M229.66,367.38l57.12,23.81H229.66Zm53.41,0H229.66l57.12,23.81Z" transform="translate(-229.3 -280.03)"/><path class="cls-3" d="M229.66,367.38l57.12,23.81H229.66Zm53.41,0H229.66l57.12,23.81Z" transform="translate(-229.3 -280.03)"/><path class="cls-2" d="M299.86,391.19,357,415h-59.6Zm57.12,0H299.86L357,415Z" transform="translate(-229.3 -280.03)"/><path class="cls-3" d="M299.86,391.19,357,415h-59.6Zm57.12,0H299.86L357,415Z" transform="translate(-229.3 -280.03)"/><path class="cls-2" d="M229.66,391.19,289.4,415H229.66Zm57.12,0H229.66L289.4,415Z" transform="translate(-229.3 -280.03)"/><path class="cls-3" d="M229.66,391.19,289.4,415H229.66Zm57.12,0H229.66L289.4,415Z" transform="translate(-229.3 -280.03)"/><path class="cls-2" d="M297.38,415,357,439.09H295.59Zm59.6,0h-59.6L357,439.09Z" transform="translate(-229.3 -280.03)"/><path class="cls-3" d="M297.38,415,357,439.09H295.59Zm59.6,0h-59.6L357,439.09Z" transform="translate(-229.3 -280.03)"/><path class="cls-2" d="M229.66,415,291,439.09H229.66Zm59.74,0H229.66L291,439.09Z" transform="translate(-229.3 -280.03)"/><path class="cls-3" d="M229.66,415,291,439.09H229.66Zm59.74,0H229.66L291,439.09Z" transform="translate(-229.3 -280.03)"/><path class="cls-2" d="M295.59,439.09l61.39,16H294.9Zm61.39,0H295.59l61.39,16Z" transform="translate(-229.3 -280.03)"/><path class="cls-3" d="M295.59,439.09l61.39,16H294.9Zm61.39,0H295.59l61.39,16Z" transform="translate(-229.3 -280.03)"/><path class="cls-2" d="M229.66,439.09l62.22,16H229.66Zm61.39,0H229.66l62.22,16Z" transform="translate(-229.3 -280.03)"/><path class="cls-3" d="M229.66,439.09l62.22,16H229.66Zm61.39,0H229.66l62.22,16Z" transform="translate(-229.3 -280.03)"/><path class="cls-2" d="M294.9,455.06,357,463H294.49Zm62.08,0H294.9L357,463Z" transform="translate(-229.3 -280.03)"/><path class="cls-3" d="M294.9,455.06,357,463H294.49Zm62.08,0H294.9L357,463Z" transform="translate(-229.3 -280.03)"/><path class="cls-2" d="M229.66,455.06l62.49,8H229.66Zm62.22,0H229.66l62.49,8Z" transform="translate(-229.3 -280.03)"/><path class="cls-3" d="M229.66,455.06l62.49,8H229.66Zm62.22,0H229.66l62.49,8Z" transform="translate(-229.3 -280.03)"/><path class="cls-2" d="M294.49,463,357,465H294.49ZM357,463H294.49L357,465Z" transform="translate(-229.3 -280.03)"/><path class="cls-3" d="M294.49,463,357,465H294.49ZM357,463H294.49L357,465Z" transform="translate(-229.3 -280.03)"/><path class="cls-2" d="M229.66,463,292.15,465H229.66Zm62.49,0H229.66L292.15,465Z" transform="translate(-229.3 -280.03)"/><path class="cls-3" d="M229.66,463,292.15,465H229.66Zm62.49,0H229.66L292.15,465Z" transform="translate(-229.3 -280.03)"/><path class="cls-2" d="M294.49,465l62.49.41H295.59ZM357,465H294.49l62.49.41Z" transform="translate(-229.3 -280.03)"/><path class="cls-3" d="M294.49,465l62.49.41H295.59ZM357,465H294.49l62.49.41Z" transform="translate(-229.3 -280.03)"/><path class="cls-2" d="M229.66,465l61.39.41H229.66Zm62.49,0H229.66l61.39.41Z" transform="translate(-229.3 -280.03)"/><path class="cls-3" d="M229.66,465l61.39.41H229.66Zm62.49,0H229.66l61.39.41Z" transform="translate(-229.3 -280.03)"/><path class="cls-2" d="M295.59,465.38l61.39.55H296.69Zm61.39,0H295.59l61.39.55Z" transform="translate(-229.3 -280.03)"/><path class="cls-3" d="M295.59,465.38l61.39.55H296.69Zm61.39,0H295.59l61.39.55Z" transform="translate(-229.3 -280.03)"/><path class="cls-2" d="M229.66,465.38l60.43.55H229.66Zm61.39,0H229.66l60.43.55Z" transform="translate(-229.3 -280.03)"/><path class="cls-3" d="M229.66,465.38l60.43.55H229.66Zm61.39,0H229.66l60.43.55Z" transform="translate(-229.3 -280.03)"/><path class="cls-2" d="M296.69,465.94l60.29.69H297.52Zm60.29,0H296.69l60.29.69Z" transform="translate(-229.3 -280.03)"/><path class="cls-3" d="M296.69,465.94l60.29.69H297.52Zm60.29,0H296.69l60.29.69Z" transform="translate(-229.3 -280.03)"/><path class="cls-2" d="M229.66,465.94l59.46.69H229.66Zm60.43,0H229.66l59.46.69Z" transform="translate(-229.3 -280.03)"/><path class="cls-3" d="M229.66,465.94l59.46.69H229.66Zm60.43,0H229.66l59.46.69Z" transform="translate(-229.3 -280.03)"/><path class="cls-2" d="M297.52,466.62l59.46,1H298.21Zm59.46,0H297.52l59.46,1Z" transform="translate(-229.3 -280.03)"/><path class="cls-3" d="M297.52,466.62l59.46,1H298.21Zm59.46,0H297.52l59.46,1Z" transform="translate(-229.3 -280.03)"/><path class="cls-2" d="M229.66,466.62l58.77,1H229.66Zm59.46,0H229.66l58.77,1Z" transform="translate(-229.3 -280.03)"/><path class="cls-3" d="M229.66,466.62l58.77,1H229.66Zm59.46,0H229.66l58.77,1Z" transform="translate(-229.3 -280.03)"/><path class="cls-2" d="M298.21,467.59l58.77,1H298.76Zm58.77,0H298.21l58.77,1Z" transform="translate(-229.3 -280.03)"/><path class="cls-3" d="M298.21,467.59l58.77,1H298.76Zm58.77,0H298.21l58.77,1Z" transform="translate(-229.3 -280.03)"/><path class="cls-2" d="M229.66,467.59l58.22,1H229.66Zm58.77,0H229.66l58.22,1Z" transform="translate(-229.3 -280.03)"/><path class="cls-3" d="M229.66,467.59l58.22,1H229.66Zm58.77,0H229.66l58.22,1Z" transform="translate(-229.3 -280.03)"/><path class="cls-2" d="M298.76,468.55l58.22,1.1H299.17Zm58.22,0H298.76l58.22,1.1Z" transform="translate(-229.3 -280.03)"/><path class="cls-3" d="M298.76,468.55l58.22,1.1H299.17Zm58.22,0H298.76l58.22,1.1Z" transform="translate(-229.3 -280.03)"/><path class="cls-2" d="M229.66,468.55l57.95,1.1H229.66Zm58.22,0H229.66l57.95,1.1Z" transform="translate(-229.3 -280.03)"/><path class="cls-3" d="M229.66,468.55l57.95,1.1H229.66Zm58.22,0H229.66l57.95,1.1Z" transform="translate(-229.3 -280.03)"/><path class="cls-2" d="M299.17,469.65l57.81,1.1H299.31Zm57.81,0H299.17l57.81,1.1Z" transform="translate(-229.3 -280.03)"/><path class="cls-3" d="M299.17,469.65l57.81,1.1H299.31Zm57.81,0H299.17l57.81,1.1Z" transform="translate(-229.3 -280.03)"/><path class="cls-2" d="M229.66,469.65l57.81,1.1H229.66Zm57.95,0H229.66l57.81,1.1Z" transform="translate(-229.3 -280.03)"/><path class="cls-3" d="M229.66,469.65l57.81,1.1H229.66Zm57.95,0H229.66l57.81,1.1Z" transform="translate(-229.3 -280.03)"/><path class="cls-2" d="M299.31,470.75,357,472H299.17Zm57.67,0H299.31L357,472Z" transform="translate(-229.3 -280.03)"/><path class="cls-3" d="M299.31,470.75,357,472H299.17Zm57.67,0H299.31L357,472Z" transform="translate(-229.3 -280.03)"/><path class="cls-2" d="M229.66,470.75,287.61,472H229.66Zm57.81,0H229.66L287.61,472Z" transform="translate(-229.3 -280.03)"/><path class="cls-3" d="M229.66,470.75,287.61,472H229.66Zm57.81,0H229.66L287.61,472Z" transform="translate(-229.3 -280.03)"/><path class="cls-2" d="M299.17,472l57.81,1.1H298.76ZM357,472H299.17l57.81,1.1Z" transform="translate(-229.3 -280.03)"/><path class="cls-3" d="M299.17,472l57.81,1.1H298.76ZM357,472H299.17l57.81,1.1Z" transform="translate(-229.3 -280.03)"/><path class="cls-2" d="M229.66,472l58.22,1.1H229.66Zm57.95,0H229.66l58.22,1.1Z" transform="translate(-229.3 -280.03)"/><path class="cls-3" d="M229.66,472l58.22,1.1H229.66Zm57.95,0H229.66l58.22,1.1Z" transform="translate(-229.3 -280.03)"/><path class="cls-2" d="M298.76,473.09l58.22,1H298.21Zm58.22,0H298.76l58.22,1Z" transform="translate(-229.3 -280.03)"/><path class="cls-3" d="M298.76,473.09l58.22,1H298.21Zm58.22,0H298.76l58.22,1Z" transform="translate(-229.3 -280.03)"/><path class="cls-2" d="M229.66,473.09l58.77,1H229.66Zm58.22,0H229.66l58.77,1Z" transform="translate(-229.3 -280.03)"/><path class="cls-3" d="M229.66,473.09l58.77,1H229.66Zm58.22,0H229.66l58.77,1Z" transform="translate(-229.3 -280.03)"/><path class="cls-2" d="M298.21,474.06,357,475H297.52Zm58.77,0H298.21L357,475Z" transform="translate(-229.3 -280.03)"/><path class="cls-3" d="M298.21,474.06,357,475H297.52Zm58.77,0H298.21L357,475Z" transform="translate(-229.3 -280.03)"/><path class="cls-2" d="M229.66,474.06l59.46,1H229.66Zm58.77,0H229.66l59.46,1Z" transform="translate(-229.3 -280.03)"/><path class="cls-3" d="M229.66,474.06l59.46,1H229.66Zm58.77,0H229.66l59.46,1Z" transform="translate(-229.3 -280.03)"/><path class="cls-2" d="M297.52,475l59.46.69H296.69ZM357,475H297.52l59.46.69Z" transform="translate(-229.3 -280.03)"/><path class="cls-3" d="M297.52,475l59.46.69H296.69ZM357,475H297.52l59.46.69Z" transform="translate(-229.3 -280.03)"/><path class="cls-2" d="M229.66,475l60.43.69H229.66Zm59.46,0H229.66l60.43.69Z" transform="translate(-229.3 -280.03)"/><path class="cls-3" d="M229.66,475l60.43.69H229.66Zm59.46,0H229.66l60.43.69Z" transform="translate(-229.3 -280.03)"/><path class="cls-2" d="M296.69,475.71l60.29.55H295.59Zm60.29,0H296.69l60.29.55Z" transform="translate(-229.3 -280.03)"/><path class="cls-3" d="M296.69,475.71l60.29.55H295.59Zm60.29,0H296.69l60.29.55Z" transform="translate(-229.3 -280.03)"/><path class="cls-2" d="M229.66,475.71l61.39.55H229.66Zm60.43,0H229.66l61.39.55Z" transform="translate(-229.3 -280.03)"/><path class="cls-3" d="M229.66,475.71l61.39.55H229.66Zm60.43,0H229.66l61.39.55Z" transform="translate(-229.3 -280.03)"/><path class="cls-2" d="M295.59,476.26l61.39.28H294.49Zm61.39,0H295.59l61.39.28Z" transform="translate(-229.3 -280.03)"/><path class="cls-3" d="M295.59,476.26l61.39.28H294.49Zm61.39,0H295.59l61.39.28Z" transform="translate(-229.3 -280.03)"/><path class="cls-2" d="M229.66,476.26l62.49.28H229.66Zm61.39,0H229.66l62.49.28Z" transform="translate(-229.3 -280.03)"/><path class="cls-3" d="M229.66,476.26l62.49.28H229.66Zm61.39,0H229.66l62.49.28Z" transform="translate(-229.3 -280.03)"/><path class="cls-2" d="M294.49,476.53l62.49.14H293.39Zm62.49,0H294.49l62.49.14Z" transform="translate(-229.3 -280.03)"/><path class="cls-3" d="M294.49,476.53l62.49.14H293.39Zm62.49,0H294.49l62.49.14Z" transform="translate(-229.3 -280.03)"/><path class="cls-2" d="M229.66,476.53l63.73.14H229.66Zm62.49,0H229.66l63.73.14Z" transform="translate(-229.3 -280.03)"/><path class="cls-3" d="M229.66,476.53l63.73.14H229.66Zm62.49,0H229.66l63.73.14Z" transform="translate(-229.3 -280.03)"/><path class="cls-2" d="M229.66,476.67l127.32,20H229.66Zm127.32,0H229.66l127.32,20Z" transform="translate(-229.3 -280.03)"/><path class="cls-3" d="M229.66,476.67l127.32,20H229.66Zm127.32,0H229.66l127.32,20Z" transform="translate(-229.3 -280.03)"/><polyline class="cls-4" points="65.6 175.03 66.29 159.06 68.08 134.98 70.56 111.16 74.41 87.35 79.92 63.95 87.08 43.03 95.75 25 104.42 11.37 110.48 3.53 113.09 0.36 127.68 0.36 127.68 216.6 0.36 216.6 0.36 0.36 15.09 0.36 17.57 3.53 23.76 11.37 32.29 25 40.97 43.03 48.26 63.95 53.77 87.35 57.48 111.16 60.1 134.98 61.75 159.06 62.58 175.03 62.85 183.01 62.85 184.94"/><path class="cls-4" d="M292.15,465a5.85,5.85,0,0,0,1.17,11.58" transform="translate(-229.3 -280.03)"/><path class="cls-4" d="M293.32,476.53A5.85,5.85,0,0,0,294.49,465" transform="translate(-229.3 -280.03)"/><polyline class="cls-4" points="65.19 184.94 65.19 183.01 65.6 175.03"/></svg>