<svg id="Layer_1" data-name="Layer 1" xmlns="http://www.w3.org/2000/svg" viewBox="0 0 303.24 303.36"><defs><style>.cls-1{fill:none;stroke:#010101;stroke-linecap:round;stroke-linejoin:round;stroke-width:0.72px;}.cls-2{fill:#010101;fill-rule:evenodd;}</style></defs><title>5.8G_Patch_EdgeFed_FR4</title><rect class="cls-1" x="0.36" y="0.36" width="302.52" height="302.64"/><polygon class="cls-2" points="86.88 102 216.48 175.44 86.88 175.44 86.88 102"/><polygon class="cls-2" points="86.88 102 216.48 102 216.48 175.44 86.88 102"/><polygon class="cls-2" points="164.64 175.44 216.48 201.36 164.64 201.36 164.64 175.44"/><polygon class="cls-2" points="164.64 175.44 216.48 175.44 216.48 201.36 164.64 175.44"/><polygon class="cls-2" points="86.88 175.44 138.72 201.36 86.88 201.36 86.88 175.44"/><polygon class="cls-2" points="86.88 175.44 138.72 175.44 138.72 201.36 86.88 175.44"/><polygon class="cls-2" points="147.36 175.44 156 303 147.36 303 147.36 175.44"/><polygon class="cls-2" points="147.36 175.44 156 175.44 156 303 147.36 175.44"/><rect class="cls-1" x="147.36" y="175.44" width="8.64" height="127.56"/><polygon class="cls-1" points="138.72 201.36 138.72 175.44 164.64 175.44 164.64 201.36 216.48 201.36 216.48 102 86.88 102 86.88 201.36 138.72 201.36"/></svg>