<svg id="Layer_1" data-name="Layer 1" xmlns="http://www.w3.org/2000/svg" viewBox="0 0 157.83 267.54"><defs><style>.cls-1{fill:none;stroke:#000;stroke-linecap:round;stroke-linejoin:round;stroke-width:0.72px;}</style></defs><title>5.8G_Vivaldi_EdgeFed_FR4_bottom</title><path class="cls-1" d="M274.92,538.34a11.29,11.29,0,0,0-6.69,3.86" transform="translate(-199.5 -322.77)"/><path class="cls-1" d="M268.23,542.2a11.29,11.29,0,0,0-2.64,7.26" transform="translate(-199.5 -322.77)"/><polyline class="cls-1" points="66.21 226.75 77.44 226.75 75.55 215.64"/><polyline class="cls-1" points="77.44 226.75 92.1 226.75 92.1 224.5 77.44 224.5 77.44 226.75"/><polyline class="cls-1" points="75.55 215.64 77.44 226.75 77.44 224.5 75.55 215.64"/><polyline class="cls-1" points="122.6 230.89 92.1 226.75 92.1 224.5 122.6 221.9 122.6 230.89 157.47 230.89 157.47 221.9 122.6 221.9 122.6 230.89"/><polyline class="cls-1" points="0.36 267.18 157.47 267.18 157.47 0.36 0.36 0.36 0.36 267.18"/></svg>