<svg id="Layer_1" data-name="Layer 1" xmlns="http://www.w3.org/2000/svg" viewBox="0 0 128.1 216.96"><defs><style>.cls-1{fill:#f16924;}.cls-2,.cls-3,.cls-4{fill:none;}.cls-2{stroke:#f16924;stroke-miterlimit:10;stroke-width:0;}.cls-4{stroke:#000;stroke-linecap:round;stroke-linejoin:round;stroke-width:0.72px;}</style></defs><title>5.8G_Vivaldi_EdgeFed_FR4_back</title><path class="cls-1" d="M303.37,461.93l.06.36h-1.26Zm.12.36-.12-.36.06.36Z" transform="translate(-242.11 -287.03)"/><path class="cls-2" d="M303.37,461.93l.06.36h-1.26Zm.12.36-.12-.36.06.36Z" transform="translate(-242.11 -287.03)"/><path class="cls-1" d="M302.17,462.29l1.38.42H301Zm1.26,0h-1.26l1.38.42Z" transform="translate(-242.11 -287.03)"/><path class="cls-2" d="M302.17,462.29l1.38.42H301Zm1.26,0h-1.26l1.38.42Z" transform="translate(-242.11 -287.03)"/><path class="cls-1" d="M301,462.71l2.7.66h-3.78Zm2.58,0H301l2.7.66Z" transform="translate(-242.11 -287.03)"/><path class="cls-2" d="M301,462.71l2.7.66h-3.78Zm2.58,0H301l2.7.66Z" transform="translate(-242.11 -287.03)"/><path class="cls-1" d="M299.89,463.37l3.9.78h-4.92Zm3.78,0h-3.78l3.9.78Z" transform="translate(-242.11 -287.03)"/><path class="cls-2" d="M299.89,463.37l3.9.78h-4.92Zm3.78,0h-3.78l3.9.78Z" transform="translate(-242.11 -287.03)"/><path class="cls-1" d="M298.87,464.15l5.1.9h-6Zm4.92,0h-4.92l5.1.9Z" transform="translate(-242.11 -287.03)"/><path class="cls-2" d="M298.87,464.15l5.1.9h-6Zm4.92,0h-4.92l5.1.9Z" transform="translate(-242.11 -287.03)"/><path class="cls-1" d="M298,465.05l6.18,1h-6.9Zm6,0h-6l6.18,1Z" transform="translate(-242.11 -287.03)"/><path class="cls-2" d="M298,465.05l6.18,1h-6.9Zm6,0h-6l6.18,1Z" transform="translate(-242.11 -287.03)"/><path class="cls-1" d="M341.59,467v.18h-2.52Zm28.26.18L341.59,467v.18Zm0-.18v.18L341.59,467Z" transform="translate(-242.11 -287.03)"/><path class="cls-2" d="M341.59,467v.18h-2.52Zm28.26.18L341.59,467v.18Zm0-.18v.18L341.59,467Z" transform="translate(-242.11 -287.03)"/><path class="cls-1" d="M297.25,466.07l7.08,1.14h-7.68Zm6.9,0h-6.9l7.08,1.14Z" transform="translate(-242.11 -287.03)"/><path class="cls-2" d="M297.25,466.07l7.08,1.14h-7.68Zm6.9,0h-6.9l7.08,1.14Z" transform="translate(-242.11 -287.03)"/><path class="cls-1" d="M296.65,467.21l7.86,1.2h-8.28Zm7.68,0h-7.68l7.86,1.2Z" transform="translate(-242.11 -287.03)"/><path class="cls-2" d="M296.65,467.21l7.86,1.2h-8.28Zm7.68,0h-7.68l7.86,1.2Z" transform="translate(-242.11 -287.03)"/><path class="cls-1" d="M339.07,467.21l2.52,1.86H316.81Zm2.52,0h-2.52l2.52,1.86Z" transform="translate(-242.11 -287.03)"/><path class="cls-2" d="M339.07,467.21l2.52,1.86H316.81Zm2.52,0h-2.52l2.52,1.86Z" transform="translate(-242.11 -287.03)"/><path class="cls-1" d="M303.43,462.29l1.56,6.78h-.36Zm.06,0h-.06l1.56,6.78Z" transform="translate(-242.11 -287.03)"/><path class="cls-2" d="M303.43,462.29l1.56,6.78h-.36Zm.06,0h-.06l1.56,6.78Z" transform="translate(-242.11 -287.03)"/><polygon class="cls-1" points="62.64 182.64 62.88 182.64 62.88 183.9 62.64 182.64"/><polygon class="cls-2" points="62.64 182.64 62.88 182.64 62.88 183.9 62.64 182.64"/><path class="cls-1" d="M305,469.07l11.82.6H305Zm11.82,0H305l11.82.6Z" transform="translate(-242.11 -287.03)"/><path class="cls-2" d="M305,469.07l11.82.6H305Zm11.82,0H305l11.82.6Z" transform="translate(-242.11 -287.03)"/><path class="cls-1" d="M304.63,469.07l.36.6h-.24Zm.36,0h-.36l.36.6Z" transform="translate(-242.11 -287.03)"/><path class="cls-2" d="M304.63,469.07l.36.6h-.24Zm.36,0h-.36l.36.6Z" transform="translate(-242.11 -287.03)"/><path class="cls-1" d="M296.23,468.41l8.52,1.26h-8.82Zm8.28,0h-8.28l8.52,1.26Z" transform="translate(-242.11 -287.03)"/><path class="cls-2" d="M296.23,468.41l8.52,1.26h-8.82Zm8.28,0h-8.28l8.52,1.26Z" transform="translate(-242.11 -287.03)"/><polygon class="cls-1" points="74.7 183.9 99.48 183.9 99.48 187.26 74.7 183.9"/><polygon class="cls-2" points="74.7 183.9 99.48 183.9 99.48 187.26 74.7 183.9"/><path class="cls-1" d="M341.59,467.21l28.26,3.72H341.59Zm28.26,0H341.59l28.26,3.72Z" transform="translate(-242.11 -287.03)"/><path class="cls-2" d="M341.59,467.21l28.26,3.72H341.59Zm28.26,0H341.59l28.26,3.72Z" transform="translate(-242.11 -287.03)"/><path class="cls-1" d="M316.81,469.07l24.78,1.86H316.81Zm24.78,0H316.81l24.78,1.86Z" transform="translate(-242.11 -287.03)"/><path class="cls-2" d="M316.81,469.07l24.78,1.86H316.81Zm24.78,0H316.81l24.78,1.86Z" transform="translate(-242.11 -287.03)"/><path class="cls-1" d="M305,469.67l11.82,1.26H305Zm11.82,0H305l11.82,1.26Z" transform="translate(-242.11 -287.03)"/><path class="cls-2" d="M305,469.67l11.82,1.26H305Zm11.82,0H305l11.82,1.26Z" transform="translate(-242.11 -287.03)"/><path class="cls-1" d="M295.93,469.67l9.06,1.26h-9.12Zm8.82,0h-8.82l9.06,1.26Z" transform="translate(-242.11 -287.03)"/><path class="cls-2" d="M295.93,469.67l9.06,1.26h-9.12Zm8.82,0h-8.82l9.06,1.26Z" transform="translate(-242.11 -287.03)"/><path class="cls-1" d="M341.59,470.93l28.26,3.36H341.59Zm28.26,0H341.59l28.26,3.36Z" transform="translate(-242.11 -287.03)"/><path class="cls-2" d="M341.59,470.93l28.26,3.36H341.59Zm28.26,0H341.59l28.26,3.36Z" transform="translate(-242.11 -287.03)"/><path class="cls-3" d="M303.38,461.95a9.09,9.09,0,0,0-5.39,3.11" transform="translate(-242.11 -287.03)"/><path class="cls-3" d="M298,465.06a9.09,9.09,0,0,0-2.13,5.84" transform="translate(-242.11 -287.03)"/><polyline class="cls-3" points="53.76 183.9 62.88 183.9 61.26 174.9"/><polyline class="cls-3" points="62.88 183.9 74.7 183.9 74.7 182.04 62.88 182.04 62.88 183.9"/><polyline class="cls-3" points="61.26 174.9 62.88 183.9 62.88 182.04 61.26 174.9"/><polyline class="cls-3" points="99.48 187.26 74.7 183.9 74.7 182.04 99.48 180 99.48 187.26 127.74 187.26 127.74 180 99.48 180 99.48 187.26"/><polyline class="cls-4" points="0.36 216.6 127.74 216.6 127.74 0.36 0.36 0.36 0.36 216.6"/></svg>