<?xml version="1.0" encoding="utf-8"?>
<!-- Generator: Adobe Illustrator 21.0.0, SVG Export Plug-In . SVG Version: 6.00 Build 0)  -->
<svg version="1.1" id="Layer_1" xmlns="http://www.w3.org/2000/svg" xmlns:xlink="http://www.w3.org/1999/xlink" x="0px" y="0px"
	 viewBox="0 0 170.7 174.3" style="enable-background:new 0 0 170.7 174.3;" xml:space="preserve">
<style type="text/css">
	.st0{fill:none;stroke:#010101;stroke-width:0.62;stroke-linecap:round;stroke-linejoin:round;}
	.st1{fill:#FFFFFF;}
	.st2{fill:#010101;}
	.st3{font-family:'ArialMT';}
	.st4{font-size:9.28px;}
	.st5{fill:none;stroke:#ED2224;stroke-width:1.24;stroke-linecap:round;stroke-linejoin:round;}
	.st6{fill:none;stroke:#3A53A4;stroke-width:1.24;stroke-linecap:round;stroke-linejoin:round;}
</style>
<title>patternE</title>
<line class="st0" x1="148.4" y1="51.3" x2="85.9" y2="87.2"/>
<line class="st0" x1="121.8" y1="24.7" x2="85.9" y2="87.2"/>
<line class="st0" x1="49.4" y1="24.7" x2="85.9" y2="87.2"/>
<line class="st0" x1="22.8" y1="51.3" x2="85.9" y2="87.2"/>
<line class="st0" x1="22.8" y1="123.7" x2="85.9" y2="87.2"/>
<line class="st0" x1="49.4" y1="149.7" x2="85.9" y2="87.2"/>
<line class="st0" x1="121.8" y1="149.7" x2="85.9" y2="87.2"/>
<line class="st0" x1="148.4" y1="123.7" x2="85.9" y2="87.2"/>
<line class="st0" x1="158.3" y1="87.2" x2="85.9" y2="87.2"/>
<line class="st0" x1="85.9" y1="14.8" x2="85.9" y2="87.2"/>
<line class="st0" x1="13.5" y1="87.2" x2="85.9" y2="87.2"/>
<line class="st0" x1="85.9" y1="159.6" x2="85.9" y2="87.2"/>
<line class="st0" x1="158.3" y1="87.2" x2="85.9" y2="87.2"/>
<ellipse class="st0" cx="85.6" cy="86.9" rx="14.5" ry="13.9"/>
<circle class="st0" cx="85.6" cy="86.9" r="28.8"/>
<ellipse class="st0" cx="85.6" cy="86.9" rx="43.6" ry="43"/>
<ellipse class="st0" cx="85.6" cy="86.9" rx="57.8" ry="57.8"/>
<ellipse class="st0" cx="85.9" cy="86.9" rx="72.4" ry="72.1"/>
<rect x="82.2" class="st1" width="6.8" height="13"/>
<text transform="matrix(1 0 0 1 83.38 10.44)" class="st2 st3 st4">0</text>
<rect x="158.9" y="80.4" class="st1" width="11.8" height="13"/>
<text transform="matrix(1 0 0 1 160.18 90.84)" class="st2 st3 st4">9</text>
<text transform="matrix(1 0 0 1 164.89 90.84)" class="st2 st3 st4">0</text>
<rect x="149" y="37.7" class="st1" width="11.8" height="13"/>
<text transform="matrix(1 0 0 1 150.22 48.12)" class="st2 st3 st4">6</text>
<text transform="matrix(1 0 0 1 154.93 48.12)" class="st2 st3 st4">0</text>
<rect x="121.8" y="9.8" class="st1" width="11.8" height="13"/>
<text transform="matrix(1 0 0 1 122.98 20.28)" class="st2 st3 st4">3</text>
<text transform="matrix(1 0 0 1 127.69 20.28)" class="st2 st3 st4">0</text>
<rect x="37.1" y="9.8" class="st1" width="11.8" height="13"/>
<text transform="matrix(1 0 0 1 38.26 20.28)" class="st2 st3 st4">3</text>
<text transform="matrix(1 0 0 1 42.97 20.28)" class="st2 st3 st4">0</text>
<rect x="9.8" y="37.7" class="st1" width="11.8" height="13"/>
<text transform="matrix(1 0 0 1 11.02 48.12)" class="st2 st3 st4">6</text>
<text transform="matrix(1 0 0 1 15.73 48.12)" class="st2 st3 st4">0</text>
<rect y="80.4" class="st1" width="11.6" height="13"/>
<text transform="matrix(1 0 0 1 1.18 90.84)" class="st2 st3 st4">9</text>
<text transform="matrix(1 0 0 1 5.89 90.84)" class="st2 st3 st4">0</text>
<rect x="4.9" y="123.1" class="st1" width="16.7" height="13"/>
<text transform="matrix(1 0 0 1 6.1 133.56)" class="st2 st3 st4">12</text>
<text transform="matrix(1 0 0 1 15.53 133.56)" class="st2 st3 st4">0</text>
<rect x="32.1" y="151" class="st1" width="16.7" height="13"/>
<text transform="matrix(1 0 0 1 33.34 161.4)" class="st2 st3 st4">15</text>
<text transform="matrix(1 0 0 1 42.77 161.4)" class="st2 st3 st4">0</text>
<rect x="77.3" y="160.8" class="st1" width="16.7" height="13"/>
<text transform="matrix(1 0 0 1 78.46 171.24)" class="st2 st3 st4">18</text>
<text transform="matrix(1 0 0 1 87.89 171.24)" class="st2 st3 st4">0</text>
<rect x="121.8" y="151" class="st1" width="16.7" height="13"/>
<text transform="matrix(1 0 0 1 122.98 161.4)" class="st2 st3 st4">15</text>
<text transform="matrix(1 0 0 1 132.41 161.4)" class="st2 st3 st4">0</text>
<rect x="149" y="123.1" class="st1" width="16.7" height="13"/>
<text transform="matrix(1 0 0 1 150.22 133.56)" class="st2 st3 st4">12</text>
<text transform="matrix(1 0 0 1 159.65 133.56)" class="st2 st3 st4">0</text>
<rect x="125.5" y="90.8" class="st1" width="6.8" height="13.1"/>
<text transform="matrix(1 0 0 1 126.7 101.4)" class="st2 st3 st4">0</text>
<rect x="137.3" y="90.8" class="st1" width="11.8" height="13.1"/>
<text transform="matrix(1 0 0 1 138.46 101.4)" class="st2 st3 st4">1</text>
<text transform="matrix(1 0 0 1 143.17 101.4)" class="st2 st3 st4">0</text>
<rect x="77.9" y="90.8" class="st1" width="15.5" height="13.1"/>
<text transform="matrix(1 0 0 1 79.06 101.4)" class="st2 st3 st4">-</text>
<text transform="matrix(1 0 0 1 81.88 101.4)" class="st2 st3 st4">3</text>
<text transform="matrix(1 0 0 1 86.6 101.4)" class="st2 st3 st4">0</text>
<rect x="106.3" y="90.8" class="st1" width="15.5" height="13.1"/>
<text transform="matrix(1 0 0 1 107.62 101.4)" class="st2 st3 st4">-</text>
<text transform="matrix(1 0 0 1 110.44 101.4)" class="st2 st3 st4">1</text>
<text transform="matrix(1 0 0 1 115.16 101.4)" class="st2 st3 st4">0</text>
<line class="st5" x1="85.9" y1="25.3" x2="84.7" y2="25.3"/>
<line class="st5" x1="84.7" y1="25.3" x2="83.4" y2="25.3"/>
<line class="st5" x1="83.4" y1="25.3" x2="82.2" y2="25.3"/>
<line class="st5" x1="82.2" y1="25.3" x2="81.6" y2="25.9"/>
<line class="st5" x1="81.6" y1="25.9" x2="80.3" y2="25.9"/>
<line class="st5" x1="80.3" y1="25.9" x2="79.1" y2="25.9"/>
<line class="st5" x1="79.1" y1="25.9" x2="77.9" y2="25.9"/>
<line class="st5" x1="77.9" y1="25.9" x2="77.3" y2="26.5"/>
<line class="st5" x1="77.3" y1="26.5" x2="76" y2="26.5"/>
<line class="st5" x1="76" y1="26.5" x2="74.8" y2="27.2"/>
<line class="st5" x1="74.8" y1="27.2" x2="74.2" y2="27.8"/>
<line class="st5" x1="74.2" y1="27.8" x2="72.9" y2="27.8"/>
<line class="st5" x1="72.9" y1="27.8" x2="72.3" y2="28.4"/>
<line class="st5" x1="72.3" y1="28.4" x2="71.1" y2="29"/>
<line class="st5" x1="71.1" y1="29" x2="70.4" y2="29.6"/>
<line class="st5" x1="70.4" y1="29.6" x2="69.2" y2="30.3"/>
<line class="st5" x1="69.2" y1="30.3" x2="68.6" y2="30.9"/>
<line class="st5" x1="68.6" y1="30.9" x2="67.4" y2="31.5"/>
<line class="st5" x1="67.4" y1="31.5" x2="66.7" y2="32.1"/>
<line class="st5" x1="66.7" y1="32.1" x2="65.5" y2="32.7"/>
<line class="st5" x1="65.5" y1="32.7" x2="64.9" y2="33.3"/>
<line class="st5" x1="64.9" y1="33.3" x2="64.3" y2="34"/>
<line class="st5" x1="64.3" y1="34" x2="63.6" y2="35.2"/>
<line class="st5" x1="63.6" y1="35.2" x2="63" y2="35.8"/>
<line class="st5" x1="63" y1="35.8" x2="61.8" y2="36.4"/>
<line class="st5" x1="61.8" y1="36.4" x2="61.2" y2="37.7"/>
<line class="st5" x1="61.2" y1="37.7" x2="60.5" y2="38.3"/>
<line class="st5" x1="60.5" y1="38.3" x2="59.9" y2="39.5"/>
<line class="st5" x1="59.9" y1="39.5" x2="59.9" y2="40.2"/>
<line class="st5" x1="59.9" y1="40.2" x2="59.3" y2="41.4"/>
<line class="st5" x1="59.3" y1="41.4" x2="58.7" y2="42.6"/>
<line class="st5" x1="58.7" y1="42.6" x2="58.1" y2="43.3"/>
<line class="st5" x1="58.1" y1="43.3" x2="58.1" y2="44.5"/>
<line class="st5" x1="58.1" y1="44.5" x2="57.5" y2="45.7"/>
<line class="st5" x1="57.5" y1="45.7" x2="57.5" y2="47"/>
<line class="st5" x1="57.5" y1="47" x2="56.8" y2="48.2"/>
<line class="st5" x1="56.8" y1="48.2" x2="56.8" y2="48.8"/>
<line class="st5" x1="56.8" y1="48.8" x2="56.8" y2="50"/>
<line class="st5" x1="56.8" y1="50" x2="56.8" y2="51.3"/>
<line class="st5" x1="56.8" y1="51.3" x2="56.8" y2="52.5"/>
<line class="st5" x1="56.8" y1="52.5" x2="56.8" y2="53.8"/>
<line class="st5" x1="56.8" y1="53.8" x2="56.8" y2="55.6"/>
<line class="st5" x1="56.8" y1="55.6" x2="57.5" y2="56.9"/>
<line class="st5" x1="57.5" y1="56.9" x2="57.5" y2="58.1"/>
<line class="st5" x1="57.5" y1="58.1" x2="58.1" y2="59.3"/>
<line class="st5" x1="58.1" y1="59.3" x2="58.7" y2="61.2"/>
<line class="st5" x1="58.7" y1="61.2" x2="59.3" y2="62.4"/>
<line class="st5" x1="59.3" y1="62.4" x2="59.9" y2="63.7"/>
<line class="st5" x1="59.9" y1="63.7" x2="60.5" y2="65.5"/>
<line class="st5" x1="60.5" y1="65.5" x2="61.8" y2="67.4"/>
<line class="st5" x1="61.8" y1="67.4" x2="63" y2="68.6"/>
<line class="st5" x1="63" y1="68.6" x2="64.3" y2="70.5"/>
<line class="st5" x1="64.3" y1="70.5" x2="66.1" y2="72.3"/>
<line class="st5" x1="66.1" y1="72.3" x2="68" y2="74.2"/>
<line class="st5" x1="68" y1="74.2" x2="70.4" y2="76.7"/>
<line class="st5" x1="70.4" y1="76.7" x2="72.3" y2="77.9"/>
<line class="st5" x1="72.3" y1="77.9" x2="73.5" y2="79.1"/>
<line class="st5" x1="73.5" y1="79.1" x2="72.9" y2="79.1"/>
<line class="st5" x1="72.9" y1="79.1" x2="71.1" y2="78.5"/>
<line class="st5" x1="71.1" y1="78.5" x2="69.2" y2="77.9"/>
<line class="st5" x1="69.2" y1="77.9" x2="67.4" y2="77.3"/>
<line class="st5" x1="67.4" y1="77.3" x2="65.5" y2="76.7"/>
<line class="st5" x1="65.5" y1="76.7" x2="64.3" y2="76"/>
<line class="st5" x1="64.3" y1="76" x2="63" y2="76"/>
<line class="st5" x1="63" y1="76" x2="61.8" y2="76"/>
<line class="st5" x1="61.8" y1="76" x2="60.5" y2="76"/>
<line class="st5" x1="60.5" y1="76" x2="59.9" y2="76"/>
<line class="st5" x1="59.9" y1="76" x2="58.7" y2="76.7"/>
<line class="st5" x1="58.7" y1="76.7" x2="58.1" y2="76.7"/>
<line class="st5" x1="58.1" y1="76.7" x2="57.5" y2="76.7"/>
<line class="st5" x1="57.5" y1="76.7" x2="56.8" y2="77.3"/>
<line class="st5" x1="56.8" y1="77.3" x2="56.2" y2="77.9"/>
<line class="st5" x1="56.2" y1="77.9" x2="56.2" y2="77.9"/>
<line class="st5" x1="56.2" y1="77.9" x2="55.6" y2="78.5"/>
<line class="st5" x1="55.6" y1="78.5" x2="55" y2="79.1"/>
<line class="st5" x1="55" y1="79.1" x2="55" y2="79.8"/>
<line class="st5" x1="55" y1="79.8" x2="54.4" y2="79.8"/>
<line class="st5" x1="54.4" y1="79.8" x2="54.4" y2="80.4"/>
<line class="st5" x1="54.4" y1="80.4" x2="54.4" y2="81"/>
<line class="st5" x1="54.4" y1="81" x2="54.4" y2="81.6"/>
<line class="st5" x1="54.4" y1="81.6" x2="53.7" y2="82.2"/>
<line class="st5" x1="53.7" y1="82.2" x2="53.7" y2="82.8"/>
<line class="st5" x1="53.7" y1="82.8" x2="53.7" y2="83.5"/>
<line class="st5" x1="53.7" y1="83.5" x2="53.7" y2="84.1"/>
<line class="st5" x1="53.7" y1="84.1" x2="53.7" y2="84.7"/>
<line class="st5" x1="53.7" y1="84.7" x2="54.4" y2="85.3"/>
<line class="st5" x1="54.4" y1="85.3" x2="54.4" y2="85.9"/>
<line class="st5" x1="54.4" y1="85.9" x2="54.4" y2="86.6"/>
<line class="st5" x1="54.4" y1="86.6" x2="54.4" y2="87.2"/>
<line class="st5" x1="54.4" y1="87.2" x2="54.4" y2="87.8"/>
<line class="st5" x1="54.4" y1="87.8" x2="55" y2="88.4"/>
<line class="st5" x1="55" y1="88.4" x2="55" y2="89"/>
<line class="st5" x1="55" y1="89" x2="55" y2="89"/>
<line class="st5" x1="55" y1="89" x2="55" y2="89.7"/>
<line class="st5" x1="55" y1="89.7" x2="55.6" y2="90.3"/>
<line class="st5" x1="55.6" y1="90.3" x2="55.6" y2="90.9"/>
<line class="st5" x1="55.6" y1="90.9" x2="55.6" y2="91.5"/>
<line class="st5" x1="55.6" y1="91.5" x2="55.6" y2="92.1"/>
<line class="st5" x1="55.6" y1="92.1" x2="56.2" y2="92.1"/>
<line class="st5" x1="56.2" y1="92.1" x2="56.2" y2="92.7"/>
<line class="st5" x1="56.2" y1="92.7" x2="56.2" y2="93.4"/>
<line class="st5" x1="56.2" y1="93.4" x2="56.2" y2="94"/>
<line class="st5" x1="56.2" y1="94" x2="56.2" y2="94.6"/>
<line class="st5" x1="56.2" y1="94.6" x2="56.2" y2="95.2"/>
<line class="st5" x1="56.2" y1="95.2" x2="56.2" y2="95.8"/>
<line class="st5" x1="56.2" y1="95.8" x2="56.2" y2="96.5"/>
<line class="st5" x1="56.2" y1="96.5" x2="56.2" y2="97.1"/>
<line class="st5" x1="56.2" y1="97.1" x2="56.2" y2="97.7"/>
<line class="st5" x1="56.2" y1="97.7" x2="55.6" y2="98.3"/>
<line class="st5" x1="55.6" y1="98.3" x2="55.6" y2="98.9"/>
<line class="st5" x1="55.6" y1="98.9" x2="55.6" y2="99.6"/>
<line class="st5" x1="55.6" y1="99.6" x2="55.6" y2="100.2"/>
<line class="st5" x1="55.6" y1="100.2" x2="55.6" y2="100.8"/>
<line class="st5" x1="55.6" y1="100.8" x2="55.6" y2="101.4"/>
<line class="st5" x1="55.6" y1="101.4" x2="55.6" y2="102"/>
<line class="st5" x1="55.6" y1="102" x2="55.6" y2="102.6"/>
<line class="st5" x1="55.6" y1="102.6" x2="55.6" y2="103.3"/>
<line class="st5" x1="55.6" y1="103.3" x2="55.6" y2="103.9"/>
<line class="st5" x1="55.6" y1="103.9" x2="55.6" y2="104.5"/>
<line class="st5" x1="55.6" y1="104.5" x2="55.6" y2="105.1"/>
<line class="st5" x1="55.6" y1="105.1" x2="55.6" y2="105.7"/>
<line class="st5" x1="55.6" y1="105.7" x2="55.6" y2="106.4"/>
<line class="st5" x1="55.6" y1="106.4" x2="55.6" y2="107"/>
<line class="st5" x1="55.6" y1="107" x2="56.2" y2="107.6"/>
<line class="st5" x1="56.2" y1="107.6" x2="56.2" y2="108.2"/>
<line class="st5" x1="56.2" y1="108.2" x2="56.2" y2="108.8"/>
<line class="st5" x1="56.2" y1="108.8" x2="56.8" y2="109.4"/>
<line class="st5" x1="56.8" y1="109.4" x2="56.8" y2="110.1"/>
<line class="st5" x1="56.8" y1="110.1" x2="57.5" y2="110.7"/>
<line class="st5" x1="57.5" y1="110.7" x2="58.1" y2="111.3"/>
<line class="st5" x1="58.1" y1="111.3" x2="58.1" y2="111.9"/>
<line class="st5" x1="58.1" y1="111.9" x2="58.7" y2="112.5"/>
<line class="st5" x1="58.7" y1="112.5" x2="59.3" y2="112.5"/>
<line class="st5" x1="59.3" y1="112.5" x2="59.3" y2="113.2"/>
<line class="st5" x1="59.3" y1="113.2" x2="59.9" y2="113.8"/>
<line class="st5" x1="59.9" y1="113.8" x2="60.5" y2="113.8"/>
<line class="st5" x1="60.5" y1="113.8" x2="61.2" y2="114.4"/>
<line class="st5" x1="61.2" y1="114.4" x2="61.8" y2="114.4"/>
<line class="st5" x1="61.8" y1="114.4" x2="62.4" y2="115"/>
<line class="st5" x1="62.4" y1="115" x2="63" y2="115"/>
<line class="st5" x1="63" y1="115" x2="63.6" y2="115"/>
<line class="st5" x1="63.6" y1="115" x2="64.3" y2="115"/>
<line class="st5" x1="64.3" y1="115" x2="64.9" y2="115"/>
<line class="st5" x1="64.9" y1="115" x2="66.1" y2="115"/>
<line class="st5" x1="66.1" y1="115" x2="66.7" y2="115"/>
<line class="st5" x1="66.7" y1="115" x2="67.4" y2="115"/>
<line class="st5" x1="67.4" y1="115" x2="68.6" y2="114.4"/>
<line class="st5" x1="68.6" y1="114.4" x2="69.2" y2="114.4"/>
<line class="st5" x1="69.2" y1="114.4" x2="70.4" y2="113.8"/>
<line class="st5" x1="70.4" y1="113.8" x2="71.1" y2="113.2"/>
<line class="st5" x1="71.1" y1="113.2" x2="72.3" y2="112.5"/>
<line class="st5" x1="72.3" y1="112.5" x2="72.9" y2="111.3"/>
<line class="st5" x1="72.9" y1="111.3" x2="74.2" y2="110.7"/>
<line class="st5" x1="74.2" y1="110.7" x2="75.4" y2="109.4"/>
<line class="st5" x1="75.4" y1="109.4" x2="76.6" y2="107.6"/>
<line class="st5" x1="76.6" y1="107.6" x2="77.9" y2="105.7"/>
<line class="st5" x1="77.9" y1="105.7" x2="79.1" y2="103.3"/>
<line class="st5" x1="79.1" y1="103.3" x2="80.3" y2="100.2"/>
<line class="st5" x1="80.3" y1="100.2" x2="81.6" y2="97.7"/>
<line class="st5" x1="81.6" y1="97.7" x2="82.8" y2="95.8"/>
<line class="st5" x1="82.8" y1="95.8" x2="82.2" y2="97.1"/>
<line class="st5" x1="82.2" y1="97.1" x2="81.6" y2="100.2"/>
<line class="st5" x1="81.6" y1="100.2" x2="81" y2="103.3"/>
<line class="st5" x1="81" y1="103.3" x2="80.3" y2="105.7"/>
<line class="st5" x1="80.3" y1="105.7" x2="80.3" y2="108.2"/>
<line class="st5" x1="80.3" y1="108.2" x2="80.3" y2="110.1"/>
<line class="st5" x1="80.3" y1="110.1" x2="80.3" y2="111.9"/>
<line class="st5" x1="80.3" y1="111.9" x2="80.3" y2="113.2"/>
<line class="st5" x1="80.3" y1="113.2" x2="81" y2="114.4"/>
<line class="st5" x1="81" y1="114.4" x2="81" y2="115.6"/>
<line class="st5" x1="81" y1="115.6" x2="81.6" y2="116.3"/>
<line class="st5" x1="81.6" y1="116.3" x2="82.2" y2="116.9"/>
<line class="st5" x1="82.2" y1="116.9" x2="82.2" y2="118.1"/>
<line class="st5" x1="82.2" y1="118.1" x2="82.8" y2="118.1"/>
<line class="st5" x1="82.8" y1="118.1" x2="83.4" y2="118.7"/>
<line class="st5" x1="83.4" y1="118.7" x2="84.1" y2="119.3"/>
<line class="st5" x1="84.1" y1="119.3" x2="84.7" y2="119.3"/>
<line class="st5" x1="84.7" y1="119.3" x2="85.3" y2="119.3"/>
<line class="st5" x1="85.3" y1="119.3" x2="85.9" y2="120"/>
<line class="st5" x1="85.9" y1="120" x2="85.9" y2="120"/>
<line class="st5" x1="85.9" y1="120" x2="86.5" y2="119.3"/>
<line class="st5" x1="86.5" y1="119.3" x2="87.1" y2="119.3"/>
<line class="st5" x1="87.1" y1="119.3" x2="87.8" y2="119.3"/>
<line class="st5" x1="87.8" y1="119.3" x2="88.4" y2="118.7"/>
<line class="st5" x1="88.4" y1="118.7" x2="89" y2="118.1"/>
<line class="st5" x1="89" y1="118.1" x2="89.6" y2="118.1"/>
<line class="st5" x1="89.6" y1="118.1" x2="89.6" y2="117.5"/>
<line class="st5" x1="89.6" y1="117.5" x2="90.2" y2="116.3"/>
<line class="st5" x1="90.2" y1="116.3" x2="90.9" y2="115.6"/>
<line class="st5" x1="90.9" y1="115.6" x2="90.9" y2="114.4"/>
<line class="st5" x1="90.9" y1="114.4" x2="91.5" y2="113.8"/>
<line class="st5" x1="91.5" y1="113.8" x2="91.5" y2="112.5"/>
<line class="st5" x1="91.5" y1="112.5" x2="91.5" y2="110.7"/>
<line class="st5" x1="91.5" y1="110.7" x2="91.5" y2="109.4"/>
<line class="st5" x1="91.5" y1="109.4" x2="91.5" y2="107.6"/>
<line class="st5" x1="91.5" y1="107.6" x2="91.5" y2="105.7"/>
<line class="st5" x1="91.5" y1="105.7" x2="90.9" y2="103.9"/>
<line class="st5" x1="90.9" y1="103.9" x2="90.9" y2="102.6"/>
<line class="st5" x1="90.9" y1="102.6" x2="90.9" y2="101.4"/>
<line class="st5" x1="90.9" y1="101.4" x2="91.5" y2="102"/>
<line class="st5" x1="91.5" y1="102" x2="92.1" y2="103.3"/>
<line class="st5" x1="92.1" y1="103.3" x2="93.3" y2="104.5"/>
<line class="st5" x1="93.3" y1="104.5" x2="94" y2="106.4"/>
<line class="st5" x1="94" y1="106.4" x2="95.2" y2="107.6"/>
<line class="st5" x1="95.2" y1="107.6" x2="96.4" y2="109.4"/>
<line class="st5" x1="96.4" y1="109.4" x2="97.7" y2="110.1"/>
<line class="st5" x1="97.7" y1="110.1" x2="98.3" y2="111.3"/>
<line class="st5" x1="98.3" y1="111.3" x2="99.5" y2="111.9"/>
<line class="st5" x1="99.5" y1="111.9" x2="100.1" y2="112.5"/>
<line class="st5" x1="100.1" y1="112.5" x2="101.4" y2="113.2"/>
<line class="st5" x1="101.4" y1="113.2" x2="102" y2="113.8"/>
<line class="st5" x1="102" y1="113.8" x2="103.2" y2="113.8"/>
<line class="st5" x1="103.2" y1="113.8" x2="103.9" y2="114.4"/>
<line class="st5" x1="103.9" y1="114.4" x2="104.5" y2="114.4"/>
<line class="st5" x1="104.5" y1="114.4" x2="105.1" y2="114.4"/>
<line class="st5" x1="105.1" y1="114.4" x2="106.3" y2="114.4"/>
<line class="st5" x1="106.3" y1="114.4" x2="107" y2="114.4"/>
<line class="st5" x1="107" y1="114.4" x2="107.6" y2="114.4"/>
<line class="st5" x1="107.6" y1="114.4" x2="108.2" y2="113.8"/>
<line class="st5" x1="108.2" y1="113.8" x2="108.8" y2="113.8"/>
<line class="st5" x1="108.8" y1="113.8" x2="109.4" y2="113.8"/>
<line class="st5" x1="109.4" y1="113.8" x2="110" y2="113.2"/>
<line class="st5" x1="110" y1="113.2" x2="110.7" y2="113.2"/>
<line class="st5" x1="110.7" y1="113.2" x2="111.3" y2="112.5"/>
<line class="st5" x1="111.3" y1="112.5" x2="111.3" y2="111.9"/>
<line class="st5" x1="111.3" y1="111.9" x2="111.9" y2="111.9"/>
<line class="st5" x1="111.9" y1="111.9" x2="112.5" y2="111.3"/>
<line class="st5" x1="112.5" y1="111.3" x2="112.5" y2="110.7"/>
<line class="st5" x1="112.5" y1="110.7" x2="113.1" y2="110.1"/>
<line class="st5" x1="113.1" y1="110.1" x2="113.8" y2="109.4"/>
<line class="st5" x1="113.8" y1="109.4" x2="113.8" y2="109.4"/>
<line class="st5" x1="113.8" y1="109.4" x2="113.8" y2="108.8"/>
<line class="st5" x1="113.8" y1="108.8" x2="114.4" y2="108.2"/>
<line class="st5" x1="114.4" y1="108.2" x2="114.4" y2="107.6"/>
<line class="st5" x1="114.4" y1="107.6" x2="115" y2="107"/>
<line class="st5" x1="115" y1="107" x2="115" y2="106.4"/>
<line class="st5" x1="115" y1="106.4" x2="115" y2="105.7"/>
<line class="st5" x1="115" y1="105.7" x2="115" y2="105.1"/>
<line class="st5" x1="115" y1="105.1" x2="115" y2="104.5"/>
<line class="st5" x1="115" y1="104.5" x2="115.6" y2="103.9"/>
<line class="st5" x1="115.6" y1="103.9" x2="115.6" y2="103.3"/>
<line class="st5" x1="115.6" y1="103.3" x2="115.6" y2="102.6"/>
<line class="st5" x1="115.6" y1="102.6" x2="115.6" y2="102"/>
<line class="st5" x1="115.6" y1="102" x2="115.6" y2="101.4"/>
<line class="st5" x1="115.6" y1="101.4" x2="115.6" y2="100.8"/>
<line class="st5" x1="115.6" y1="100.8" x2="115.6" y2="100.2"/>
<line class="st5" x1="115.6" y1="100.2" x2="115.6" y2="99.6"/>
<line class="st5" x1="115.6" y1="99.6" x2="115.6" y2="98.9"/>
<line class="st5" x1="115.6" y1="98.9" x2="115.6" y2="98.3"/>
<line class="st5" x1="115.6" y1="98.3" x2="115.6" y2="97.7"/>
<line class="st5" x1="115.6" y1="97.7" x2="115.6" y2="97.1"/>
<line class="st5" x1="115.6" y1="97.1" x2="116.2" y2="96.5"/>
<line class="st5" x1="116.2" y1="96.5" x2="116.2" y2="95.8"/>
<line class="st5" x1="116.2" y1="95.8" x2="116.2" y2="95.2"/>
<line class="st5" x1="116.2" y1="95.2" x2="116.2" y2="94.6"/>
<line class="st5" x1="116.2" y1="94.6" x2="116.2" y2="94"/>
<line class="st5" x1="116.2" y1="94" x2="116.8" y2="94"/>
<line class="st5" x1="116.8" y1="94" x2="116.8" y2="93.4"/>
<line class="st5" x1="116.8" y1="93.4" x2="116.8" y2="92.7"/>
<line class="st5" x1="116.8" y1="92.7" x2="116.8" y2="92.1"/>
<line class="st5" x1="116.8" y1="92.1" x2="117.5" y2="91.5"/>
<line class="st5" x1="117.5" y1="91.5" x2="117.5" y2="90.9"/>
<line class="st5" x1="117.5" y1="90.9" x2="117.5" y2="90.3"/>
<line class="st5" x1="117.5" y1="90.3" x2="118.1" y2="90.3"/>
<line class="st5" x1="118.1" y1="90.3" x2="118.1" y2="89.7"/>
<line class="st5" x1="118.1" y1="89.7" x2="118.1" y2="89"/>
<line class="st5" x1="118.1" y1="89" x2="118.7" y2="88.4"/>
<line class="st5" x1="118.7" y1="88.4" x2="118.7" y2="87.8"/>
<line class="st5" x1="118.7" y1="87.8" x2="118.7" y2="87.2"/>
<line class="st5" x1="118.7" y1="87.2" x2="119.3" y2="86.6"/>
<line class="st5" x1="119.3" y1="86.6" x2="119.3" y2="85.9"/>
<line class="st5" x1="119.3" y1="85.9" x2="119.3" y2="85.3"/>
<line class="st5" x1="119.3" y1="85.3" x2="119.3" y2="84.7"/>
<line class="st5" x1="119.3" y1="84.7" x2="119.3" y2="84.1"/>
<line class="st5" x1="119.3" y1="84.1" x2="119.3" y2="83.5"/>
<line class="st5" x1="119.3" y1="83.5" x2="119.3" y2="82.8"/>
<line class="st5" x1="119.3" y1="82.8" x2="119.3" y2="82.2"/>
<line class="st5" x1="119.3" y1="82.2" x2="119.3" y2="81.6"/>
<line class="st5" x1="119.3" y1="81.6" x2="119.3" y2="81"/>
<line class="st5" x1="119.3" y1="81" x2="119.3" y2="80.4"/>
<line class="st5" x1="119.3" y1="80.4" x2="119.3" y2="79.8"/>
<line class="st5" x1="119.3" y1="79.8" x2="119.3" y2="79.1"/>
<line class="st5" x1="119.3" y1="79.1" x2="118.7" y2="79.1"/>
<line class="st5" x1="118.7" y1="79.1" x2="118.7" y2="78.5"/>
<line class="st5" x1="118.7" y1="78.5" x2="118.7" y2="77.9"/>
<line class="st5" x1="118.7" y1="77.9" x2="118.1" y2="77.3"/>
<line class="st5" x1="118.1" y1="77.3" x2="118.1" y2="76.7"/>
<line class="st5" x1="118.1" y1="76.7" x2="117.5" y2="76"/>
<line class="st5" x1="117.5" y1="76" x2="116.8" y2="75.4"/>
<line class="st5" x1="116.8" y1="75.4" x2="116.8" y2="75.4"/>
<line class="st5" x1="116.8" y1="75.4" x2="116.2" y2="74.8"/>
<line class="st5" x1="116.2" y1="74.8" x2="115.6" y2="74.2"/>
<line class="st5" x1="115.6" y1="74.2" x2="115" y2="74.2"/>
<line class="st5" x1="115" y1="74.2" x2="114.4" y2="73.6"/>
<line class="st5" x1="114.4" y1="73.6" x2="113.8" y2="73.6"/>
<line class="st5" x1="113.8" y1="73.6" x2="112.5" y2="73.6"/>
<line class="st5" x1="112.5" y1="73.6" x2="111.9" y2="72.9"/>
<line class="st5" x1="111.9" y1="72.9" x2="110.7" y2="72.9"/>
<line class="st5" x1="110.7" y1="72.9" x2="110" y2="72.9"/>
<line class="st5" x1="110" y1="72.9" x2="108.8" y2="73.6"/>
<line class="st5" x1="108.8" y1="73.6" x2="107.6" y2="73.6"/>
<line class="st5" x1="107.6" y1="73.6" x2="105.7" y2="74.2"/>
<line class="st5" x1="105.7" y1="74.2" x2="104.5" y2="74.2"/>
<line class="st5" x1="104.5" y1="74.2" x2="103.2" y2="74.8"/>
<line class="st5" x1="103.2" y1="74.8" x2="102" y2="75.4"/>
<line class="st5" x1="102" y1="75.4" x2="101.4" y2="74.8"/>
<line class="st5" x1="101.4" y1="74.8" x2="102" y2="74.2"/>
<line class="st5" x1="102" y1="74.2" x2="103.2" y2="72.9"/>
<line class="st5" x1="103.2" y1="72.9" x2="104.5" y2="71.1"/>
<line class="st5" x1="104.5" y1="71.1" x2="106.3" y2="69.2"/>
<line class="st5" x1="106.3" y1="69.2" x2="107.6" y2="67.4"/>
<line class="st5" x1="107.6" y1="67.4" x2="108.8" y2="65.5"/>
<line class="st5" x1="108.8" y1="65.5" x2="109.4" y2="64.3"/>
<line class="st5" x1="109.4" y1="64.3" x2="110" y2="62.4"/>
<line class="st5" x1="110" y1="62.4" x2="111.3" y2="60.6"/>
<line class="st5" x1="111.3" y1="60.6" x2="111.3" y2="59.3"/>
<line class="st5" x1="111.3" y1="59.3" x2="111.9" y2="58.1"/>
<line class="st5" x1="111.9" y1="58.1" x2="112.5" y2="56.2"/>
<line class="st5" x1="112.5" y1="56.2" x2="112.5" y2="55"/>
<line class="st5" x1="112.5" y1="55" x2="112.5" y2="53.8"/>
<line class="st5" x1="112.5" y1="53.8" x2="113.1" y2="52.5"/>
<line class="st5" x1="113.1" y1="52.5" x2="113.1" y2="50.7"/>
<line class="st5" x1="113.1" y1="50.7" x2="113.1" y2="49.4"/>
<line class="st5" x1="113.1" y1="49.4" x2="112.5" y2="48.2"/>
<line class="st5" x1="112.5" y1="48.2" x2="112.5" y2="47"/>
<line class="st5" x1="112.5" y1="47" x2="112.5" y2="45.7"/>
<line class="st5" x1="112.5" y1="45.7" x2="111.9" y2="45.1"/>
<line class="st5" x1="111.9" y1="45.1" x2="111.9" y2="43.9"/>
<line class="st5" x1="111.9" y1="43.9" x2="111.3" y2="42.6"/>
<line class="st5" x1="111.3" y1="42.6" x2="110.7" y2="41.4"/>
<line class="st5" x1="110.7" y1="41.4" x2="110.7" y2="40.8"/>
<line class="st5" x1="110.7" y1="40.8" x2="110" y2="39.5"/>
<line class="st5" x1="110" y1="39.5" x2="109.4" y2="38.3"/>
<line class="st5" x1="109.4" y1="38.3" x2="108.8" y2="37.7"/>
<line class="st5" x1="108.8" y1="37.7" x2="108.2" y2="36.4"/>
<line class="st5" x1="108.2" y1="36.4" x2="107.6" y2="35.8"/>
<line class="st5" x1="107.6" y1="35.8" x2="107" y2="35.2"/>
<line class="st5" x1="107" y1="35.2" x2="105.7" y2="34"/>
<line class="st5" x1="105.7" y1="34" x2="105.1" y2="33.3"/>
<line class="st5" x1="105.1" y1="33.3" x2="104.5" y2="32.7"/>
<line class="st5" x1="104.5" y1="32.7" x2="103.9" y2="32.1"/>
<line class="st5" x1="103.9" y1="32.1" x2="102.6" y2="31.5"/>
<line class="st5" x1="102.6" y1="31.5" x2="102" y2="30.9"/>
<line class="st5" x1="102" y1="30.9" x2="100.8" y2="30.3"/>
<line class="st5" x1="100.8" y1="30.3" x2="100.1" y2="29.6"/>
<line class="st5" x1="100.1" y1="29.6" x2="98.9" y2="29"/>
<line class="st5" x1="98.9" y1="29" x2="98.3" y2="28.4"/>
<line class="st5" x1="98.3" y1="28.4" x2="97" y2="27.8"/>
<line class="st5" x1="97" y1="27.8" x2="96.4" y2="27.8"/>
<line class="st5" x1="96.4" y1="27.8" x2="95.2" y2="27.2"/>
<line class="st5" x1="95.2" y1="27.2" x2="94" y2="26.5"/>
<line class="st5" x1="94" y1="26.5" x2="93.3" y2="26.5"/>
<line class="st5" x1="93.3" y1="26.5" x2="92.1" y2="25.9"/>
<line class="st5" x1="92.1" y1="25.9" x2="90.9" y2="25.9"/>
<line class="st5" x1="90.9" y1="25.9" x2="89.6" y2="25.9"/>
<line class="st5" x1="89.6" y1="25.9" x2="89" y2="25.9"/>
<line class="st5" x1="89" y1="25.9" x2="87.8" y2="25.3"/>
<line class="st5" x1="87.8" y1="25.3" x2="86.5" y2="25.3"/>
<line class="st5" x1="86.5" y1="25.3" x2="85.9" y2="25.3"/>
<line class="st6" x1="84.1" y1="14.8" x2="85.9" y2="87.2"/>
</svg>
