<svg id="Layer_1" data-name="Layer 1" xmlns="http://www.w3.org/2000/svg" viewBox="0 0 170.64 173.76"><defs><style>.cls-1,.cls-8,.cls-9{fill:none;stroke-linecap:round;stroke-linejoin:round;}.cls-1{stroke:#010101;stroke-width:0.62px;}.cls-2{fill:#fff;}.cls-3{font-size:9.28px;fill:#010101;font-family:CIDFont+F2, CIDFont+F2;}.cls-4{letter-spacing:-0.01em;}.cls-5{letter-spacing:0em;}.cls-6{letter-spacing:0em;}.cls-7{letter-spacing:0em;}.cls-8{stroke:#ed2224;}.cls-8,.cls-9{stroke-width:1.24px;}.cls-9{stroke:#3a53a4;}</style></defs><title>patternH_6G_4x4Patch_EdgeFed_FR4</title><line class="cls-1" x1="148.41" y1="51.29" x2="85.93" y2="87.18"/><line class="cls-1" x1="121.81" y1="24.69" x2="85.93" y2="87.18"/><line class="cls-1" x1="49.43" y1="24.69" x2="85.93" y2="87.18"/><line class="cls-1" x1="22.83" y1="51.29" x2="85.93" y2="87.18"/><line class="cls-1" x1="22.83" y1="123.68" x2="85.93" y2="87.18"/><line class="cls-1" x1="49.43" y1="149.67" x2="85.93" y2="87.18"/><line class="cls-1" x1="121.81" y1="149.67" x2="85.93" y2="87.18"/><line class="cls-1" x1="148.41" y1="123.68" x2="85.93" y2="87.18"/><line class="cls-1" x1="158.31" y1="87.18" x2="85.93" y2="87.18"/><line class="cls-1" x1="85.93" y1="14.79" x2="85.93" y2="87.18"/><line class="cls-1" x1="13.55" y1="87.18" x2="85.93" y2="87.18"/><line class="cls-1" x1="85.93" y1="159.57" x2="85.93" y2="87.18"/><line class="cls-1" x1="158.31" y1="87.18" x2="85.93" y2="87.18"/><ellipse class="cls-1" cx="85.62" cy="86.87" rx="14.54" ry="13.92"/><circle class="cls-1" cx="85.62" cy="86.87" r="28.77"/><ellipse class="cls-1" cx="85.62" cy="86.87" rx="43.61" ry="43"/><ellipse class="cls-1" cx="85.62" cy="86.87" rx="57.84" ry="57.85"/><ellipse class="cls-1" cx="85.93" cy="86.87" rx="72.38" ry="72.08"/><rect class="cls-2" x="82.2" width="6.84" height="12.96"/><text class="cls-3" transform="translate(83.4 10.44)">0</text><rect class="cls-2" x="158.88" y="80.4" width="11.76" height="12.96"/><text class="cls-3" transform="translate(160.2 90.84)"><tspan class="cls-4">9</tspan><tspan x="4.71" y="0">0</tspan></text><rect class="cls-2" x="149.04" y="37.68" width="11.76" height="12.96"/><text class="cls-3" transform="translate(150.24 48.12)"><tspan class="cls-4">6</tspan><tspan x="4.71" y="0">0</tspan></text><rect class="cls-2" x="121.8" y="9.84" width="11.76" height="12.96"/><text class="cls-3" transform="translate(123 20.28)"><tspan class="cls-5">3</tspan><tspan x="4.71" y="0">0</tspan></text><rect class="cls-2" x="37.08" y="9.84" width="11.76" height="12.96"/><text class="cls-3" transform="translate(38.28 20.28)"><tspan class="cls-5">3</tspan><tspan x="4.71" y="0">0</tspan></text><rect class="cls-2" x="9.84" y="37.68" width="11.76" height="12.96"/><text class="cls-3" transform="translate(11.04 48.12)"><tspan class="cls-5">6</tspan><tspan x="4.71" y="0">0</tspan></text><rect class="cls-2" y="80.4" width="11.64" height="12.96"/><text class="cls-3" transform="translate(1.2 90.84)"><tspan class="cls-5">9</tspan><tspan x="4.71" y="0">0</tspan></text><rect class="cls-2" x="4.92" y="123.12" width="16.68" height="12.96"/><text class="cls-3" transform="translate(6.12 133.56)"><tspan class="cls-5">12</tspan><tspan x="9.43" y="0">0</tspan></text><rect class="cls-2" x="32.16" y="150.96" width="16.68" height="12.96"/><text class="cls-3" transform="translate(33.36 161.4)"><tspan class="cls-5">15</tspan><tspan x="9.43" y="0">0</tspan></text><rect class="cls-2" x="77.28" y="160.8" width="16.68" height="12.96"/><text class="cls-3" transform="translate(78.48 171.24)"><tspan class="cls-5">18</tspan><tspan x="9.43" y="0">0</tspan></text><rect class="cls-2" x="121.8" y="150.96" width="16.68" height="12.96"/><text class="cls-3" transform="translate(123 161.4)"><tspan class="cls-5">15</tspan><tspan x="9.43" y="0">0</tspan></text><rect class="cls-2" x="149.04" y="123.12" width="16.68" height="12.96"/><text class="cls-3" transform="translate(150.24 133.56)"><tspan class="cls-4">12</tspan><tspan x="9.43" y="0">0</tspan></text><rect class="cls-2" x="125.52" y="90.84" width="6.84" height="13.08"/><text class="cls-3" transform="translate(126.72 101.4)">0</text><rect class="cls-2" x="137.28" y="90.84" width="11.76" height="13.08"/><text class="cls-3" transform="translate(138.48 101.4)"><tspan class="cls-6">1</tspan><tspan x="4.71" y="0">0</tspan></text><rect class="cls-2" x="77.88" y="90.84" width="15.48" height="13.08"/><text class="cls-3" transform="translate(79.08 101.4)"><tspan class="cls-7">-</tspan><tspan class="cls-5" x="2.82" y="0">3</tspan><tspan x="7.54" y="0">0</tspan></text><rect class="cls-2" x="106.32" y="90.84" width="15.48" height="13.08"/><text class="cls-3" transform="translate(107.64 101.4)"><tspan class="cls-7">-</tspan><tspan class="cls-5" x="2.82" y="0">1</tspan><tspan x="7.54" y="0">0</tspan></text><line class="cls-8" x1="85.93" y1="17.88" x2="84.69" y2="17.88"/><line class="cls-8" x1="84.69" y1="17.88" x2="83.45" y2="18.5"/><line class="cls-8" x1="83.45" y1="18.5" x2="82.21" y2="18.5"/><line class="cls-8" x1="82.21" y1="18.5" x2="80.98" y2="19.12"/><line class="cls-8" x1="80.98" y1="19.12" x2="79.74" y2="19.12"/><line class="cls-8" x1="79.74" y1="19.12" x2="78.5" y2="19.74"/><line class="cls-8" x1="78.5" y1="19.74" x2="77.26" y2="20.35"/><line class="cls-8" x1="77.26" y1="20.35" x2="76.65" y2="21.59"/><line class="cls-8" x1="76.65" y1="21.59" x2="75.41" y2="22.21"/><line class="cls-8" x1="75.41" y1="22.21" x2="74.17" y2="23.45"/><line class="cls-8" x1="74.17" y1="23.45" x2="73.56" y2="24.07"/><line class="cls-8" x1="73.56" y1="24.07" x2="72.32" y2="25.3"/><line class="cls-8" x1="72.32" y1="25.3" x2="71.7" y2="26.54"/><line class="cls-8" x1="71.7" y1="26.54" x2="71.08" y2="28.4"/><line class="cls-8" x1="71.08" y1="28.4" x2="70.46" y2="29.64"/><line class="cls-8" x1="70.46" y1="29.64" x2="69.85" y2="31.49"/><line class="cls-8" x1="69.85" y1="31.49" x2="69.22" y2="33.97"/><line class="cls-8" x1="69.22" y1="33.97" x2="69.22" y2="35.83"/><line class="cls-8" x1="69.22" y1="35.83" x2="68.61" y2="38.3"/><line class="cls-8" x1="68.61" y1="38.3" x2="68.61" y2="41.39"/><line class="cls-8" x1="68.61" y1="41.39" x2="69.22" y2="44.49"/><line class="cls-8" x1="69.22" y1="44.49" x2="69.85" y2="48.2"/><line class="cls-8" x1="69.85" y1="48.2" x2="71.08" y2="52.53"/><line class="cls-8" x1="71.08" y1="52.53" x2="71.7" y2="56.24"/><line class="cls-8" x1="71.7" y1="56.24" x2="71.08" y2="55.63"/><line class="cls-8" x1="71.08" y1="55.63" x2="69.22" y2="53.15"/><line class="cls-8" x1="69.22" y1="53.15" x2="67.37" y2="50.68"/><line class="cls-8" x1="67.37" y1="50.68" x2="65.51" y2="48.82"/><line class="cls-8" x1="65.51" y1="48.82" x2="63.66" y2="47.58"/><line class="cls-8" x1="63.66" y1="47.58" x2="62.42" y2="46.34"/><line class="cls-8" x1="62.42" y1="46.34" x2="60.56" y2="45.73"/><line class="cls-8" x1="60.56" y1="45.73" x2="59.32" y2="45.73"/><line class="cls-8" x1="59.32" y1="45.73" x2="58.71" y2="45.73"/><line class="cls-8" x1="58.71" y1="45.73" x2="57.47" y2="45.73"/><line class="cls-8" x1="57.47" y1="45.73" x2="56.85" y2="45.73"/><line class="cls-8" x1="56.85" y1="45.73" x2="55.62" y2="45.73"/><line class="cls-8" x1="55.62" y1="45.73" x2="55" y2="46.34"/><line class="cls-8" x1="55" y1="46.34" x2="54.38" y2="46.96"/><line class="cls-8" x1="54.38" y1="46.96" x2="53.76" y2="47.58"/><line class="cls-8" x1="53.76" y1="47.58" x2="53.14" y2="48.2"/><line class="cls-8" x1="53.14" y1="48.2" x2="52.52" y2="48.82"/><line class="cls-8" x1="52.52" y1="48.82" x2="51.91" y2="49.44"/><line class="cls-8" x1="51.91" y1="49.44" x2="51.28" y2="50.68"/><line class="cls-8" x1="51.28" y1="50.68" x2="51.28" y2="51.29"/><line class="cls-8" x1="51.28" y1="51.29" x2="50.67" y2="52.53"/><line class="cls-8" x1="50.67" y1="52.53" x2="50.67" y2="53.15"/><line class="cls-8" x1="50.67" y1="53.15" x2="50.05" y2="54.39"/><line class="cls-8" x1="50.05" y1="54.39" x2="50.05" y2="55"/><line class="cls-8" x1="50.05" y1="55" x2="50.05" y2="56.24"/><line class="cls-8" x1="50.05" y1="56.24" x2="50.05" y2="56.86"/><line class="cls-8" x1="50.05" y1="56.86" x2="49.43" y2="58.1"/><line class="cls-8" x1="49.43" y1="58.1" x2="49.43" y2="59.34"/><line class="cls-8" x1="49.43" y1="59.34" x2="49.43" y2="59.95"/><line class="cls-8" x1="49.43" y1="59.95" x2="49.43" y2="61.19"/><line class="cls-8" x1="49.43" y1="61.19" x2="49.43" y2="61.81"/><line class="cls-8" x1="49.43" y1="61.81" x2="49.43" y2="62.43"/><line class="cls-8" x1="49.43" y1="62.43" x2="49.43" y2="63.67"/><line class="cls-8" x1="49.43" y1="63.67" x2="48.81" y2="64.29"/><line class="cls-8" x1="48.81" y1="64.29" x2="48.81" y2="64.9"/><line class="cls-8" x1="48.81" y1="64.9" x2="48.81" y2="66.14"/><line class="cls-8" x1="48.81" y1="66.14" x2="48.81" y2="66.76"/><line class="cls-8" x1="48.81" y1="66.76" x2="48.19" y2="67.38"/><line class="cls-8" x1="48.19" y1="67.38" x2="48.19" y2="68"/><line class="cls-8" x1="48.19" y1="68" x2="48.19" y2="68.62"/><line class="cls-8" x1="48.19" y1="68.62" x2="47.57" y2="69.85"/><line class="cls-8" x1="47.57" y1="69.85" x2="47.57" y2="70.48"/><line class="cls-8" x1="47.57" y1="70.48" x2="47.57" y2="71.09"/><line class="cls-8" x1="47.57" y1="71.09" x2="47.57" y2="71.71"/><line class="cls-8" x1="47.57" y1="71.71" x2="47.57" y2="72.33"/><line class="cls-8" x1="47.57" y1="72.33" x2="46.96" y2="72.95"/><line class="cls-8" x1="46.96" y1="72.95" x2="46.96" y2="74.19"/><line class="cls-8" x1="46.96" y1="74.19" x2="46.96" y2="74.8"/><line class="cls-8" x1="46.96" y1="74.8" x2="46.96" y2="75.43"/><line class="cls-8" x1="46.96" y1="75.43" x2="46.96" y2="76.04"/><line class="cls-8" x1="46.96" y1="76.04" x2="46.96" y2="76.66"/><line class="cls-8" x1="46.96" y1="76.66" x2="46.96" y2="77.28"/><line class="cls-8" x1="46.96" y1="77.28" x2="46.96" y2="78.52"/><line class="cls-8" x1="46.96" y1="78.52" x2="46.96" y2="79.14"/><line class="cls-8" x1="46.96" y1="79.14" x2="47.57" y2="79.75"/><line class="cls-8" x1="47.57" y1="79.75" x2="47.57" y2="80.38"/><line class="cls-8" x1="47.57" y1="80.38" x2="47.57" y2="80.99"/><line class="cls-8" x1="47.57" y1="80.99" x2="47.57" y2="81.61"/><line class="cls-8" x1="47.57" y1="81.61" x2="48.19" y2="82.85"/><line class="cls-8" x1="48.19" y1="82.85" x2="48.19" y2="83.47"/><line class="cls-8" x1="48.19" y1="83.47" x2="48.19" y2="84.09"/><line class="cls-8" x1="48.19" y1="84.09" x2="48.81" y2="84.7"/><line class="cls-8" x1="48.81" y1="84.7" x2="48.81" y2="85.33"/><line class="cls-8" x1="48.81" y1="85.33" x2="48.81" y2="85.94"/><line class="cls-8" x1="48.81" y1="85.94" x2="49.43" y2="86.56"/><line class="cls-8" x1="49.43" y1="86.56" x2="49.43" y2="87.18"/><line class="cls-8" x1="49.43" y1="87.18" x2="50.05" y2="87.79"/><line class="cls-8" x1="50.05" y1="87.79" x2="50.05" y2="88.42"/><line class="cls-8" x1="50.05" y1="88.42" x2="50.67" y2="89.03"/><line class="cls-8" x1="50.67" y1="89.03" x2="50.67" y2="89.65"/><line class="cls-8" x1="50.67" y1="89.65" x2="51.28" y2="90.27"/><line class="cls-8" x1="51.28" y1="90.27" x2="51.28" y2="90.89"/><line class="cls-8" x1="51.28" y1="90.89" x2="51.91" y2="91.51"/><line class="cls-8" x1="51.91" y1="91.51" x2="52.52" y2="92.13"/><line class="cls-8" x1="52.52" y1="92.13" x2="52.52" y2="92.13"/><line class="cls-8" x1="52.52" y1="92.13" x2="53.14" y2="92.74"/><line class="cls-8" x1="53.14" y1="92.74" x2="53.76" y2="93.37"/><line class="cls-8" x1="53.76" y1="93.37" x2="53.76" y2="93.98"/><line class="cls-8" x1="53.76" y1="93.98" x2="54.38" y2="94.6"/><line class="cls-8" x1="54.38" y1="94.6" x2="55" y2="94.6"/><line class="cls-8" x1="55" y1="94.6" x2="55.62" y2="95.22"/><line class="cls-8" x1="55.62" y1="95.22" x2="56.24" y2="95.84"/><line class="cls-8" x1="56.24" y1="95.84" x2="56.85" y2="95.84"/><line class="cls-8" x1="56.85" y1="95.84" x2="57.47" y2="96.46"/><line class="cls-8" x1="57.47" y1="96.46" x2="58.09" y2="96.46"/><line class="cls-8" x1="58.09" y1="96.46" x2="58.71" y2="97.08"/><line class="cls-8" x1="58.71" y1="97.08" x2="59.32" y2="97.08"/><line class="cls-8" x1="59.32" y1="97.08" x2="60.56" y2="97.69"/><line class="cls-8" x1="60.56" y1="97.69" x2="61.18" y2="97.69"/><line class="cls-8" x1="61.18" y1="97.69" x2="61.8" y2="97.69"/><line class="cls-8" x1="61.8" y1="97.69" x2="63.04" y2="97.69"/><line class="cls-8" x1="63.04" y1="97.69" x2="63.66" y2="97.69"/><line class="cls-8" x1="63.66" y1="97.69" x2="64.9" y2="97.69"/><line class="cls-8" x1="64.9" y1="97.69" x2="65.51" y2="97.69"/><line class="cls-8" x1="65.51" y1="97.69" x2="66.75" y2="97.69"/><line class="cls-8" x1="66.75" y1="97.69" x2="67.37" y2="97.69"/><line class="cls-8" x1="67.37" y1="97.69" x2="67.99" y2="97.69"/><line class="cls-8" x1="67.99" y1="97.69" x2="68.61" y2="97.69"/><line class="cls-8" x1="68.61" y1="97.69" x2="69.22" y2="97.69"/><line class="cls-8" x1="69.22" y1="97.69" x2="69.22" y2="98.32"/><line class="cls-8" x1="69.22" y1="98.32" x2="69.22" y2="98.93"/><line class="cls-8" x1="69.22" y1="98.93" x2="69.22" y2="99.55"/><line class="cls-8" x1="69.22" y1="99.55" x2="68.61" y2="100.17"/><line class="cls-8" x1="68.61" y1="100.17" x2="68.61" y2="100.79"/><line class="cls-8" x1="68.61" y1="100.79" x2="68.61" y2="101.41"/><line class="cls-8" x1="68.61" y1="101.41" x2="68.61" y2="102.03"/><line class="cls-8" x1="68.61" y1="102.03" x2="68.61" y2="102.64"/><line class="cls-8" x1="68.61" y1="102.64" x2="68.61" y2="103.27"/><line class="cls-8" x1="68.61" y1="103.27" x2="68.61" y2="103.88"/><line class="cls-8" x1="68.61" y1="103.88" x2="68.61" y2="104.5"/><line class="cls-8" x1="68.61" y1="104.5" x2="69.22" y2="104.5"/><line class="cls-8" x1="69.22" y1="104.5" x2="69.85" y2="105.12"/><line class="cls-8" x1="69.85" y1="105.12" x2="69.85" y2="105.12"/><line class="cls-8" x1="69.85" y1="105.12" x2="70.46" y2="105.12"/><line class="cls-8" x1="70.46" y1="105.12" x2="71.7" y2="104.5"/><line class="cls-8" x1="71.7" y1="104.5" x2="72.32" y2="104.5"/><line class="cls-8" x1="72.32" y1="104.5" x2="72.94" y2="103.88"/><line class="cls-8" x1="72.94" y1="103.88" x2="74.17" y2="103.27"/><line class="cls-8" x1="74.17" y1="103.27" x2="74.8" y2="102.03"/><line class="cls-8" x1="74.8" y1="102.03" x2="76.03" y2="100.79"/><line class="cls-8" x1="76.03" y1="100.79" x2="77.89" y2="99.55"/><line class="cls-8" x1="77.89" y1="99.55" x2="79.12" y2="97.69"/><line class="cls-8" x1="79.12" y1="97.69" x2="80.36" y2="95.84"/><line class="cls-8" x1="80.36" y1="95.84" x2="81.6" y2="93.98"/><line class="cls-8" x1="81.6" y1="93.98" x2="82.21" y2="93.37"/><line class="cls-8" x1="82.21" y1="93.37" x2="81.6" y2="94.6"/><line class="cls-8" x1="81.6" y1="94.6" x2="80.36" y2="97.08"/><line class="cls-8" x1="80.36" y1="97.08" x2="79.74" y2="99.55"/><line class="cls-8" x1="79.74" y1="99.55" x2="79.12" y2="101.41"/><line class="cls-8" x1="79.12" y1="101.41" x2="78.5" y2="103.88"/><line class="cls-8" x1="78.5" y1="103.88" x2="77.89" y2="105.74"/><line class="cls-8" x1="77.89" y1="105.74" x2="77.89" y2="106.98"/><line class="cls-8" x1="77.89" y1="106.98" x2="77.26" y2="108.22"/><line class="cls-8" x1="77.26" y1="108.22" x2="77.26" y2="109.45"/><line class="cls-8" x1="77.26" y1="109.45" x2="77.26" y2="110.69"/><line class="cls-8" x1="77.26" y1="110.69" x2="77.89" y2="111.31"/><line class="cls-8" x1="77.89" y1="111.31" x2="77.89" y2="112.54"/><line class="cls-8" x1="77.89" y1="112.54" x2="78.5" y2="113.17"/><line class="cls-8" x1="78.5" y1="113.17" x2="78.5" y2="113.78"/><line class="cls-8" x1="78.5" y1="113.78" x2="79.12" y2="113.78"/><line class="cls-8" x1="79.12" y1="113.78" x2="79.12" y2="114.4"/><line class="cls-8" x1="79.12" y1="114.4" x2="79.74" y2="115.02"/><line class="cls-8" x1="79.74" y1="115.02" x2="80.36" y2="115.02"/><line class="cls-8" x1="80.36" y1="115.02" x2="80.36" y2="115.64"/><line class="cls-8" x1="80.36" y1="115.64" x2="80.98" y2="115.64"/><line class="cls-8" x1="80.98" y1="115.64" x2="81.6" y2="115.64"/><line class="cls-8" x1="81.6" y1="115.64" x2="82.21" y2="115.64"/><line class="cls-8" x1="82.21" y1="115.64" x2="82.84" y2="115.64"/><line class="cls-8" x1="82.84" y1="115.64" x2="82.84" y2="116.26"/><line class="cls-8" x1="82.84" y1="116.26" x2="83.45" y2="116.26"/><line class="cls-8" x1="83.45" y1="116.26" x2="84.07" y2="116.26"/><line class="cls-8" x1="84.07" y1="116.26" x2="84.69" y2="115.64"/><line class="cls-8" x1="84.69" y1="115.64" x2="85.31" y2="115.64"/><line class="cls-8" x1="85.31" y1="115.64" x2="85.93" y2="115.64"/><line class="cls-8" x1="85.93" y1="115.64" x2="85.93" y2="115.64"/><line class="cls-8" x1="85.93" y1="115.64" x2="86.55" y2="115.64"/><line class="cls-8" x1="86.55" y1="115.64" x2="87.16" y2="115.64"/><line class="cls-8" x1="87.16" y1="115.64" x2="87.79" y2="115.64"/><line class="cls-8" x1="87.79" y1="115.64" x2="88.4" y2="115.64"/><line class="cls-8" x1="88.4" y1="115.64" x2="88.4" y2="115.64"/><line class="cls-8" x1="88.4" y1="115.64" x2="89.03" y2="115.02"/><line class="cls-8" x1="89.03" y1="115.02" x2="89.64" y2="115.02"/><line class="cls-8" x1="89.64" y1="115.02" x2="90.26" y2="115.02"/><line class="cls-8" x1="90.26" y1="115.02" x2="90.26" y2="114.4"/><line class="cls-8" x1="90.26" y1="114.4" x2="90.88" y2="114.4"/><line class="cls-8" x1="90.88" y1="114.4" x2="91.5" y2="113.78"/><line class="cls-8" x1="91.5" y1="113.78" x2="91.5" y2="113.17"/><line class="cls-8" x1="91.5" y1="113.17" x2="92.12" y2="113.17"/><line class="cls-8" x1="92.12" y1="113.17" x2="92.12" y2="112.54"/><line class="cls-8" x1="92.12" y1="112.54" x2="92.74" y2="111.93"/><line class="cls-8" x1="92.74" y1="111.93" x2="92.74" y2="111.31"/><line class="cls-8" x1="92.74" y1="111.31" x2="93.35" y2="110.69"/><line class="cls-8" x1="93.35" y1="110.69" x2="93.35" y2="109.45"/><line class="cls-8" x1="93.35" y1="109.45" x2="93.35" y2="108.83"/><line class="cls-8" x1="93.35" y1="108.83" x2="93.97" y2="108.22"/><line class="cls-8" x1="93.97" y1="108.22" x2="93.97" y2="107.59"/><line class="cls-8" x1="93.97" y1="107.59" x2="93.97" y2="106.98"/><line class="cls-8" x1="93.97" y1="106.98" x2="94.59" y2="106.98"/><line class="cls-8" x1="94.59" y1="106.98" x2="94.59" y2="106.98"/><line class="cls-8" x1="94.59" y1="106.98" x2="95.21" y2="106.98"/><line class="cls-8" x1="95.21" y1="106.98" x2="95.83" y2="106.98"/><line class="cls-8" x1="95.83" y1="106.98" x2="96.44" y2="106.98"/><line class="cls-8" x1="96.44" y1="106.98" x2="96.44" y2="106.98"/><line class="cls-8" x1="96.44" y1="106.98" x2="97.06" y2="107.59"/><line class="cls-8" x1="97.06" y1="107.59" x2="97.68" y2="107.59"/><line class="cls-8" x1="97.68" y1="107.59" x2="98.92" y2="108.22"/><line class="cls-8" x1="98.92" y1="108.22" x2="99.54" y2="108.22"/><line class="cls-8" x1="99.54" y1="108.22" x2="100.15" y2="108.22"/><line class="cls-8" x1="100.15" y1="108.22" x2="100.78" y2="108.22"/><line class="cls-8" x1="100.78" y1="108.22" x2="101.39" y2="108.83"/><line class="cls-8" x1="101.39" y1="108.83" x2="102.01" y2="108.83"/><line class="cls-8" x1="102.01" y1="108.83" x2="102.01" y2="108.83"/><line class="cls-8" x1="102.01" y1="108.83" x2="102.63" y2="108.22"/><line class="cls-8" x1="102.63" y1="108.22" x2="103.25" y2="108.22"/><line class="cls-8" x1="103.25" y1="108.22" x2="103.87" y2="108.22"/><line class="cls-8" x1="103.87" y1="108.22" x2="104.49" y2="108.22"/><line class="cls-8" x1="104.49" y1="108.22" x2="105.1" y2="107.59"/><line class="cls-8" x1="105.1" y1="107.59" x2="105.73" y2="107.59"/><line class="cls-8" x1="105.73" y1="107.59" x2="105.73" y2="107.59"/><line class="cls-8" x1="105.73" y1="107.59" x2="106.34" y2="106.98"/><line class="cls-8" x1="106.34" y1="106.98" x2="106.96" y2="106.98"/><line class="cls-8" x1="106.96" y1="106.98" x2="107.58" y2="106.98"/><line class="cls-8" x1="107.58" y1="106.98" x2="107.58" y2="106.36"/><line class="cls-8" x1="107.58" y1="106.36" x2="108.2" y2="106.36"/><line class="cls-8" x1="108.2" y1="106.36" x2="108.82" y2="105.74"/><line class="cls-8" x1="108.82" y1="105.74" x2="109.44" y2="105.74"/><line class="cls-8" x1="109.44" y1="105.74" x2="109.44" y2="105.12"/><line class="cls-8" x1="109.44" y1="105.12" x2="110.05" y2="105.12"/><line class="cls-8" x1="110.05" y1="105.12" x2="110.68" y2="104.5"/><line class="cls-8" x1="110.68" y1="104.5" x2="111.29" y2="104.5"/><line class="cls-8" x1="111.29" y1="104.5" x2="111.29" y2="103.88"/><line class="cls-8" x1="111.29" y1="103.88" x2="111.91" y2="103.88"/><line class="cls-8" x1="111.91" y1="103.88" x2="112.53" y2="103.27"/><line class="cls-8" x1="112.53" y1="103.27" x2="112.53" y2="102.64"/><line class="cls-8" x1="112.53" y1="102.64" x2="113.15" y2="102.64"/><line class="cls-8" x1="113.15" y1="102.64" x2="113.77" y2="102.03"/><line class="cls-8" x1="113.77" y1="102.03" x2="113.77" y2="101.41"/><line class="cls-8" x1="113.77" y1="101.41" x2="114.39" y2="101.41"/><line class="cls-8" x1="114.39" y1="101.41" x2="115" y2="100.79"/><line class="cls-8" x1="115" y1="100.79" x2="115" y2="100.17"/><line class="cls-8" x1="115" y1="100.17" x2="115.62" y2="100.17"/><line class="cls-8" x1="115.62" y1="100.17" x2="115.62" y2="99.55"/><line class="cls-8" x1="115.62" y1="99.55" x2="116.24" y2="98.93"/><line class="cls-8" x1="116.24" y1="98.93" x2="116.86" y2="98.32"/><line class="cls-8" x1="116.86" y1="98.32" x2="116.86" y2="97.69"/><line class="cls-8" x1="116.86" y1="97.69" x2="117.48" y2="97.69"/><line class="cls-8" x1="117.48" y1="97.69" x2="117.48" y2="97.08"/><line class="cls-8" x1="117.48" y1="97.08" x2="118.09" y2="96.46"/><line class="cls-8" x1="118.09" y1="96.46" x2="118.72" y2="95.84"/><line class="cls-8" x1="118.72" y1="95.84" x2="118.72" y2="95.22"/><line class="cls-8" x1="118.72" y1="95.22" x2="119.33" y2="95.22"/><line class="cls-8" x1="119.33" y1="95.22" x2="119.33" y2="94.6"/><line class="cls-8" x1="119.33" y1="94.6" x2="119.96" y2="93.98"/><line class="cls-8" x1="119.96" y1="93.98" x2="120.57" y2="93.37"/><line class="cls-8" x1="120.57" y1="93.37" x2="120.57" y2="92.74"/><line class="cls-8" x1="120.57" y1="92.74" x2="121.19" y2="92.13"/><line class="cls-8" x1="121.19" y1="92.13" x2="121.19" y2="91.51"/><line class="cls-8" x1="121.19" y1="91.51" x2="121.81" y2="90.89"/><line class="cls-8" x1="121.81" y1="90.89" x2="121.81" y2="90.27"/><line class="cls-8" x1="121.81" y1="90.27" x2="122.43" y2="89.65"/><line class="cls-8" x1="122.43" y1="89.65" x2="123.04" y2="89.03"/><line class="cls-8" x1="123.04" y1="89.03" x2="123.04" y2="88.42"/><line class="cls-8" x1="123.04" y1="88.42" x2="123.67" y2="87.79"/><line class="cls-8" x1="123.67" y1="87.79" x2="123.67" y2="87.18"/><line class="cls-8" x1="123.67" y1="87.18" x2="123.67" y2="86.56"/><line class="cls-8" x1="123.67" y1="86.56" x2="124.28" y2="85.94"/><line class="cls-8" x1="124.28" y1="85.94" x2="124.28" y2="85.33"/><line class="cls-8" x1="124.28" y1="85.33" x2="124.9" y2="84.7"/><line class="cls-8" x1="124.9" y1="84.7" x2="124.9" y2="83.47"/><line class="cls-8" x1="124.9" y1="83.47" x2="124.9" y2="82.85"/><line class="cls-8" x1="124.9" y1="82.85" x2="125.52" y2="82.23"/><line class="cls-8" x1="125.52" y1="82.23" x2="125.52" y2="81.61"/><line class="cls-8" x1="125.52" y1="81.61" x2="125.52" y2="80.99"/><line class="cls-8" x1="125.52" y1="80.99" x2="125.52" y2="80.38"/><line class="cls-8" x1="125.52" y1="80.38" x2="125.52" y2="79.14"/><line class="cls-8" x1="125.52" y1="79.14" x2="125.52" y2="78.52"/><line class="cls-8" x1="125.52" y1="78.52" x2="125.52" y2="77.9"/><line class="cls-8" x1="125.52" y1="77.9" x2="125.52" y2="77.28"/><line class="cls-8" x1="125.52" y1="77.28" x2="125.52" y2="76.66"/><line class="cls-8" x1="125.52" y1="76.66" x2="125.52" y2="75.43"/><line class="cls-8" x1="125.52" y1="75.43" x2="125.52" y2="74.8"/><line class="cls-8" x1="125.52" y1="74.8" x2="124.9" y2="74.19"/><line class="cls-8" x1="124.9" y1="74.19" x2="124.9" y2="73.57"/><line class="cls-8" x1="124.9" y1="73.57" x2="124.9" y2="72.95"/><line class="cls-8" x1="124.9" y1="72.95" x2="124.28" y2="72.33"/><line class="cls-8" x1="124.28" y1="72.33" x2="124.28" y2="71.71"/><line class="cls-8" x1="124.28" y1="71.71" x2="123.67" y2="71.09"/><line class="cls-8" x1="123.67" y1="71.09" x2="123.04" y2="70.48"/><line class="cls-8" x1="123.04" y1="70.48" x2="123.04" y2="69.85"/><line class="cls-8" x1="123.04" y1="69.85" x2="122.43" y2="69.24"/><line class="cls-8" x1="122.43" y1="69.24" x2="121.81" y2="68.62"/><line class="cls-8" x1="121.81" y1="68.62" x2="121.19" y2="68"/><line class="cls-8" x1="121.19" y1="68" x2="120.57" y2="67.38"/><line class="cls-8" x1="120.57" y1="67.38" x2="120.57" y2="67.38"/><line class="cls-8" x1="120.57" y1="67.38" x2="119.96" y2="66.76"/><line class="cls-8" x1="119.96" y1="66.76" x2="119.33" y2="66.14"/><line class="cls-8" x1="119.33" y1="66.14" x2="119.33" y2="65.53"/><line class="cls-8" x1="119.33" y1="65.53" x2="119.33" y2="64.29"/><line class="cls-8" x1="119.33" y1="64.29" x2="119.33" y2="63.67"/><line class="cls-8" x1="119.33" y1="63.67" x2="119.33" y2="63.05"/><line class="cls-8" x1="119.33" y1="63.05" x2="119.33" y2="61.81"/><line class="cls-8" x1="119.33" y1="61.81" x2="119.33" y2="60.58"/><line class="cls-8" x1="119.33" y1="60.58" x2="119.96" y2="59.34"/><line class="cls-8" x1="119.96" y1="59.34" x2="119.96" y2="58.72"/><line class="cls-8" x1="119.96" y1="58.72" x2="119.96" y2="57.48"/><line class="cls-8" x1="119.96" y1="57.48" x2="119.96" y2="56.24"/><line class="cls-8" x1="119.96" y1="56.24" x2="119.96" y2="55"/><line class="cls-8" x1="119.96" y1="55" x2="119.96" y2="53.77"/><line class="cls-8" x1="119.96" y1="53.77" x2="119.96" y2="52.53"/><line class="cls-8" x1="119.96" y1="52.53" x2="119.96" y2="51.29"/><line class="cls-8" x1="119.96" y1="51.29" x2="119.96" y2="50.68"/><line class="cls-8" x1="119.96" y1="50.68" x2="119.33" y2="49.44"/><line class="cls-8" x1="119.33" y1="49.44" x2="119.33" y2="48.82"/><line class="cls-8" x1="119.33" y1="48.82" x2="118.72" y2="47.58"/><line class="cls-8" x1="118.72" y1="47.58" x2="118.09" y2="46.96"/><line class="cls-8" x1="118.09" y1="46.96" x2="117.48" y2="46.34"/><line class="cls-8" x1="117.48" y1="46.34" x2="116.86" y2="45.73"/><line class="cls-8" x1="116.86" y1="45.73" x2="116.24" y2="45.1"/><line class="cls-8" x1="116.24" y1="45.1" x2="115" y2="45.1"/><line class="cls-8" x1="115" y1="45.1" x2="114.39" y2="44.49"/><line class="cls-8" x1="114.39" y1="44.49" x2="113.15" y2="44.49"/><line class="cls-8" x1="113.15" y1="44.49" x2="111.91" y2="44.49"/><line class="cls-8" x1="111.91" y1="44.49" x2="110.68" y2="45.1"/><line class="cls-8" x1="110.68" y1="45.1" x2="109.44" y2="45.73"/><line class="cls-8" x1="109.44" y1="45.73" x2="108.2" y2="46.96"/><line class="cls-8" x1="108.2" y1="46.96" x2="106.34" y2="48.2"/><line class="cls-8" x1="106.34" y1="48.2" x2="104.49" y2="50.05"/><line class="cls-8" x1="104.49" y1="50.05" x2="102.63" y2="52.53"/><line class="cls-8" x1="102.63" y1="52.53" x2="100.78" y2="55"/><line class="cls-8" x1="100.78" y1="55" x2="100.15" y2="53.77"/><line class="cls-8" x1="100.15" y1="53.77" x2="101.39" y2="50.05"/><line class="cls-8" x1="101.39" y1="50.05" x2="102.01" y2="46.34"/><line class="cls-8" x1="102.01" y1="46.34" x2="102.63" y2="42.63"/><line class="cls-8" x1="102.63" y1="42.63" x2="103.25" y2="39.54"/><line class="cls-8" x1="103.25" y1="39.54" x2="103.25" y2="37.06"/><line class="cls-8" x1="103.25" y1="37.06" x2="102.63" y2="34.59"/><line class="cls-8" x1="102.63" y1="34.59" x2="102.63" y2="32.11"/><line class="cls-8" x1="102.63" y1="32.11" x2="102.01" y2="30.25"/><line class="cls-8" x1="102.01" y1="30.25" x2="101.39" y2="29.02"/><line class="cls-8" x1="101.39" y1="29.02" x2="100.78" y2="27.16"/><line class="cls-8" x1="100.78" y1="27.16" x2="99.54" y2="25.93"/><line class="cls-8" x1="99.54" y1="25.93" x2="98.92" y2="24.69"/><line class="cls-8" x1="98.92" y1="24.69" x2="98.3" y2="23.45"/><line class="cls-8" x1="98.3" y1="23.45" x2="97.06" y2="22.21"/><line class="cls-8" x1="97.06" y1="22.21" x2="95.83" y2="21.59"/><line class="cls-8" x1="95.83" y1="21.59" x2="95.21" y2="20.98"/><line class="cls-8" x1="95.21" y1="20.98" x2="93.97" y2="20.35"/><line class="cls-8" x1="93.97" y1="20.35" x2="92.74" y2="19.74"/><line class="cls-8" x1="92.74" y1="19.74" x2="91.5" y2="19.12"/><line class="cls-8" x1="91.5" y1="19.12" x2="90.26" y2="18.5"/><line class="cls-8" x1="90.26" y1="18.5" x2="89.03" y2="18.5"/><line class="cls-8" x1="89.03" y1="18.5" x2="87.79" y2="17.88"/><line class="cls-8" x1="87.79" y1="17.88" x2="86.55" y2="17.88"/><line class="cls-8" x1="86.55" y1="17.88" x2="85.93" y2="17.88"/><line class="cls-9" x1="87.16" y1="14.79" x2="85.93" y2="87.18"/></svg>